<svg width="22" height="38" viewBox="0 0 22 38" fill="none" xmlns="http://www.w3.org/2000/svg">
<path fill-rule="evenodd" clip-rule="evenodd" d="M4.22134 34.1952C4.72297 34.1952 5.08954 34.3009 5.32106 34.5123C5.55258 34.7238 5.66847 35.0526 5.66874 35.4988V37.8903H4.91629V35.5999C4.91629 35.0956 4.63211 34.8435 4.06373 34.8435C3.81823 34.8414 3.5772 34.9089 3.36878 35.038C3.40484 35.1889 3.42179 35.3437 3.41923 35.4988V37.8903H2.66679V35.5999C2.66679 35.0956 2.3826 34.8435 1.81423 34.8435C1.55489 34.8437 1.29768 34.8901 1.05475 34.9805V37.8903H0.302697V34.5699C0.551685 34.4468 0.815258 34.3553 1.08721 34.2976C1.37729 34.2303 1.67399 34.1953 1.97184 34.1933C2.44113 34.1933 2.78985 34.2841 3.01798 34.4656C3.39371 34.2871 3.80494 34.1946 4.22134 34.1952ZM8.24675 38C7.67316 38 7.24206 37.8367 6.95344 37.5101C6.66482 37.1835 6.52038 36.7081 6.52012 36.084C6.52012 34.8209 7.09371 34.1895 8.24088 34.1898C8.8189 34.1898 9.25352 34.3518 9.54475 34.6758C9.83598 34.9998 9.98172 35.4692 9.98198 36.084C9.98198 36.6983 9.83154 37.1712 9.53067 37.5027C9.2298 37.8342 8.80182 38 8.24675 38ZM8.23932 37.3587C8.89868 37.3587 9.22824 36.9338 9.22797 36.084C9.22797 35.6614 9.14976 35.3457 8.99333 35.1369C8.83689 34.9281 8.58608 34.8235 8.24088 34.8232C7.8923 34.8232 7.64279 34.9301 7.49235 35.1439C7.34192 35.3576 7.2667 35.671 7.2667 36.084C7.2667 36.4967 7.34426 36.8124 7.49939 37.0311C7.65452 37.2498 7.90116 37.3585 8.23932 37.3572V37.3587ZM12.4939 34.1968C13.0289 34.1968 13.4348 34.3576 13.7117 34.6793C13.9886 35.0009 14.1275 35.4566 14.1282 36.0462C14.1282 36.757 13.9623 37.26 13.6304 37.5552C13.2985 37.8504 12.8766 37.9987 12.3648 38C11.3379 38 10.8244 37.7263 10.8244 37.179V32.8267H11.5698V34.4201C11.7197 34.3489 11.8771 34.2944 12.0391 34.2579C12.1878 34.2199 12.3404 34.1989 12.4939 34.1952V34.1968ZM12.3074 37.3443C12.6984 37.3443 12.9722 37.2315 13.1286 37.0058C13.2851 36.7801 13.3633 36.4704 13.3633 36.0766C13.3633 35.6735 13.2809 35.3662 13.1161 35.1548C12.9513 34.9434 12.7066 34.8378 12.3821 34.838C12.2406 34.839 12.0999 34.857 11.9628 34.8917C11.8256 34.9247 11.6939 34.9771 11.5717 35.0474V36.993C11.5704 37.2264 11.8156 37.343 12.3074 37.3428V37.3443ZM14.9784 33.0154H15.7809V33.6999H14.9784V33.0154ZM15 34.2976H15.7524L15.7594 37.8918H15V34.2976ZM16.8185 37.8918V32.9061H17.5639V37.8903L16.8185 37.8918ZM20.0844 34.1867C20.6434 34.1867 21.053 34.3682 21.3132 34.7314C21.5734 35.0946 21.7011 35.6024 21.6965 36.2548H19.1732C19.1974 36.6102 19.3017 36.8804 19.4861 37.0653C19.6704 37.2503 19.9319 37.3427 20.2706 37.3424C20.6763 37.3428 21.0756 37.2412 21.4313 37.0471V37.7529C21.0587 37.9176 20.6319 38 20.1509 38C19.6112 38 19.1873 37.8355 18.8791 37.5066C18.5709 37.1777 18.417 36.7107 18.4172 36.1058C18.4172 35.4863 18.5628 35.0122 18.8541 34.6836C19.1453 34.3549 19.5554 34.1892 20.0844 34.1867ZM20.0629 34.8092C19.8097 34.8092 19.6116 34.8766 19.4685 35.0112C19.3253 35.1458 19.2321 35.3738 19.1888 35.6953H20.9299C20.8963 35.3879 20.8103 35.1635 20.6718 35.0221C20.5334 34.8807 20.3304 34.8098 20.0629 34.8092ZM12.8768 5.17643C12.0469 4.97227 11.4081 4.87006 10.9605 4.8698C7.62102 4.8698 4.91356 7.55471 4.91356 10.8657C4.91356 14.1767 7.62219 16.862 10.9605 16.862C14.2987 16.862 17.0078 14.1771 17.0078 10.8657C17.008 10.382 16.9494 9.89999 16.8333 9.43026L21.6409 8.14189C22.0304 9.61498 22.104 11.1531 21.8571 12.6564C21.6101 14.1596 21.0481 15.5944 20.2076 16.8674L12.2467 31.5523H4.87171L10.1122 21.9411C10.1408 21.8882 10.0567 21.7715 9.98628 21.7653C4.38638 21.2594 0 16.59 0 10.9054C0 4.88226 4.92372 6.62827e-06 10.998 6.62827e-06C12.11 -0.00120979 13.2157 0.165009 14.2776 0.493018L12.8768 5.17643Z" fill="#006E53"/>
</svg>
