<svg width="84" height="77" viewBox="0 0 84 77" fill="none" xmlns="http://www.w3.org/2000/svg">
<path d="M26.3625 0.608398C27.1542 0.60862 27.9164 0.883242 28.4949 1.37677C29.0735 1.8703 29.4253 2.54595 29.4792 3.26718C29.5332 3.98842 29.2853 4.70147 28.7857 5.26225C28.286 5.82304 27.5718 6.18975 26.7875 6.28829L26.3625 6.31492H11.7791C10.4904 6.31532 9.24768 6.75193 8.29106 7.54033C7.33445 8.32874 6.73193 9.41295 6.59997 10.5834L6.5708 11.0704V24.3932C6.57056 25.1161 6.26978 25.812 5.72925 26.3402C5.18872 26.8685 4.44872 27.1897 3.6588 27.2389C2.86888 27.2882 2.08792 27.0619 1.47372 26.6057C0.859527 26.1495 0.45789 25.4974 0.349967 24.7812L0.320801 24.3932V11.0704C0.320721 8.4056 1.43433 5.84125 3.43437 3.90059C5.43442 1.95993 8.17015 0.789244 11.0833 0.627421L11.7791 0.608398H26.3625ZM6.54163 52.5301C6.43872 51.8472 6.06849 51.2214 5.4994 50.7684C4.9303 50.3154 4.20081 50.0658 3.4458 50.0658C2.69079 50.0658 1.9613 50.3154 1.39221 50.7684C0.823108 51.2214 0.452881 51.8472 0.349967 52.5301L0.320801 52.9182V66.241L0.341635 66.9068C0.519334 69.4518 1.70903 71.8499 3.68709 73.6504C5.66515 75.4508 8.29536 76.5296 11.0833 76.6839L11.7791 76.703H26.3625L26.7875 76.6801C27.5386 76.5893 28.228 76.2523 28.7273 75.732C29.2267 75.2117 29.5019 74.5434 29.5019 73.8516C29.5019 73.1598 29.2267 72.4916 28.7273 71.9712C28.228 71.4509 27.5386 71.114 26.7875 71.0231L26.3625 70.9965H11.7791L11.2458 70.9736C10.055 70.8613 8.94285 70.3777 8.09669 69.6045C7.25053 68.8312 6.72197 67.8154 6.59997 66.728L6.5708 66.241V52.9182L6.54163 52.5301ZM83.625 52.5301C83.5171 51.814 83.1154 51.1619 82.5012 50.7057C81.887 50.2495 81.1061 50.0232 80.3161 50.0724C79.5262 50.1217 78.7862 50.4429 78.2457 50.9711C77.7052 51.4994 77.4044 52.1953 77.4041 52.9182V66.241L77.3791 66.728C77.2471 67.8991 76.644 68.9838 75.6865 69.7723C74.729 70.5608 73.4852 70.997 72.1958 70.9965H57.6125L57.1875 71.0231C56.4031 71.1216 55.6889 71.4883 55.1893 72.0491C54.6896 72.6099 54.4417 73.3229 54.4957 74.0442C54.5497 74.7654 54.9015 75.4411 55.48 75.9346C56.0586 76.4281 56.8207 76.7028 57.6125 76.703H72.1958L72.8958 76.6839C75.8082 76.5212 78.5429 75.3501 80.5421 73.4095C82.5413 71.469 83.6543 68.9051 83.6541 66.241V52.9182L83.625 52.5301ZM72.8958 0.627421L72.1958 0.608398H57.6125L57.1875 0.635029C56.4395 0.728993 55.7541 1.06703 55.2579 1.58664C54.7618 2.10625 54.4884 2.7723 54.4884 3.46166C54.4884 4.15102 54.7618 4.81707 55.2579 5.33668C55.7541 5.85629 56.4395 6.19433 57.1875 6.28829L57.6125 6.31492H72.1958L72.7291 6.33775C73.9207 6.44929 75.0338 6.93243 75.8808 7.70579C76.7278 8.47914 77.257 9.49542 77.3791 10.5834L77.4041 11.0704V24.3932L77.4333 24.7812C77.5362 25.4642 77.9064 26.09 78.4755 26.543C79.0446 26.996 79.7741 27.2456 80.5291 27.2456C81.2841 27.2456 82.0136 26.996 82.5827 26.543C83.1518 26.09 83.5221 25.4642 83.625 24.7812L83.6541 24.3932V11.0704L83.6333 10.4084C83.4567 7.86332 82.268 5.46477 80.2907 3.66362C78.3134 1.86246 75.6837 0.782747 72.8958 0.627421ZM17.8416 37.754L17.875 37.678L18.0583 37.2975C18.2375 36.9551 18.5166 36.4377 18.9166 35.81C19.725 34.547 21 32.854 22.8541 31.1573C26.5208 27.8095 32.5208 24.3856 42 24.3856C51.475 24.3856 57.4791 27.8095 61.1458 31.1573C63 32.854 64.275 34.547 65.0833 35.81C65.4695 36.4126 65.8173 37.035 66.125 37.6742L66.1583 37.754C66.7833 39.1997 68.5708 39.972 70.1791 39.4204C70.9554 39.1554 71.5847 38.6199 71.9285 37.9314C72.2723 37.2429 72.3025 36.458 72.0125 35.7492L72.0083 35.7416L72.0041 35.7339L71.9958 35.7149L71.9708 35.6579C71.8595 35.4006 71.7386 35.1468 71.6083 34.897C71.2667 34.2271 70.8913 33.5721 70.4833 32.9339C69.1225 30.814 67.4702 28.8618 65.5666 27.1247C60.8916 22.8638 53.3541 18.6791 42 18.6791C30.6416 18.6791 23.1041 22.8638 18.4375 27.1247C16.534 28.8618 14.8817 30.814 13.5208 32.9339C12.9605 33.8119 12.4622 34.7218 12.0291 35.6579L12.0041 35.7149C11.9958 35.7339 11.3291 38.5682 13.8208 39.4204C14.5945 39.6848 15.4514 39.6587 16.2041 39.3479C16.9568 39.037 17.544 38.4667 17.8375 37.7617L17.8416 37.754ZM42 31.0432C38.1322 31.0432 34.4229 32.446 31.688 34.9431C28.9531 37.4402 27.4166 40.827 27.4166 44.3584C27.4166 47.8898 28.9531 51.2766 31.688 53.7737C34.4229 56.2708 38.1322 57.6736 42 57.6736C45.8677 57.6736 49.577 56.2708 52.3119 53.7737C55.0469 51.2766 56.5833 47.8898 56.5833 44.3584C56.5833 40.827 55.0469 37.4402 52.3119 34.9431C49.577 32.446 45.8677 31.0432 42 31.0432ZM33.6666 44.3584C33.6666 42.3404 34.5446 40.4051 36.1074 38.9782C37.6702 37.5513 39.7898 36.7497 42 36.7497C44.2101 36.7497 46.3297 37.5513 47.8925 38.9782C49.4553 40.4051 50.3333 42.3404 50.3333 44.3584C50.3333 46.3764 49.4553 48.3116 47.8925 49.7386C46.3297 51.1655 44.2101 51.9671 42 51.9671C39.7898 51.9671 37.6702 51.1655 36.1074 49.7386C34.5446 48.3116 33.6666 46.3764 33.6666 44.3584Z" fill="#8568C6"/>
</svg>
