<svg width="84" height="80" viewBox="0 0 84 80" fill="none" xmlns="http://www.w3.org/2000/svg">
<path d="M50.3333 16.9997V8.66634H33.6666V16.9997H50.3333ZM8.66659 25.333V71.1663H75.3333V25.333H8.66659ZM75.3333 16.9997C79.9583 16.9997 83.6666 20.708 83.6666 25.333V71.1663C83.6666 75.7913 79.9583 79.4997 75.3333 79.4997H8.66659C4.04159 79.4997 0.333252 75.7913 0.333252 71.1663L0.374919 25.333C0.374919 20.708 4.04159 16.9997 8.66659 16.9997H25.3333V8.66634C25.3333 4.04134 29.0416 0.333008 33.6666 0.333008H50.3333C54.9583 0.333008 58.6666 4.04134 58.6666 8.66634V16.9997H75.3333Z" fill="#8568C6"/>
</svg>
