<svg width="57" height="89" viewBox="0 0 57 89" fill="none" xmlns="http://www.w3.org/2000/svg">
<path d="M20.1492 27.0905C20.1492 27.0905 11.0513 29.6387 10.4467 31.5241C10.4467 31.5241 6.74323 36.1491 6.00632 41.9175C5.64731 44.7177 6.6582 50.8501 8.04698 53.5336C10.8812 59.0033 13.6446 64.0716 13.6446 64.0716L11.8968 72.1782L37.9153 78.8286L40.7495 67.7679C40.7495 67.7679 46.1866 64.501 48.128 59.764C50.0695 55.027 49.1956 27.4732 46.1866 23.9216C43.1775 20.3701 20.1492 27.0905 20.1492 27.0905Z" fill="#FFC9B0"/>
<path d="M37.7089 79.6726C37.6705 79.6774 37.6316 79.6774 37.5932 79.6726L12.1187 73.0303C12.0027 73.0005 11.9028 72.9265 11.8398 72.8239C11.7769 72.7213 11.7558 72.5982 11.7811 72.4803L13.4553 64.5562C12.9928 63.6705 10.5277 59.0559 8.05331 54.1756C6.70281 51.514 5.63443 45.3192 6.00906 42.3034C6.70281 36.7612 9.95881 32.333 10.4074 31.7457C11.2307 29.7507 18.677 27.5506 20.1847 27.0845C22.5342 26.3853 43.097 20.3956 46.1495 24.0687C49.128 27.6531 50.1131 55.3735 48.1244 60.3377C46.353 64.7613 41.8112 67.8517 40.8724 68.453L38.1575 79.323C38.1267 79.4424 38.0502 79.5446 37.9447 79.6073C37.8729 79.6488 37.7917 79.6712 37.7089 79.6726ZM12.7754 72.2146L37.3712 78.6284L40.0214 68.0335C40.051 67.9148 40.1258 67.8127 40.2295 67.7491C40.2804 67.7165 45.4465 64.5235 47.2641 59.9788C49.1373 55.3176 48.2123 27.9934 45.4373 24.656C44.8175 23.9102 42.2506 22.9686 32.0247 25.0662C26.1093 26.2827 20.4622 27.9515 20.4206 27.9701C16.8223 29.0002 11.5961 30.958 11.2399 32.0906C11.2202 32.1436 11.1938 32.1937 11.1613 32.2398C11.1243 32.2818 7.60468 36.8311 6.90631 42.392C6.55481 45.1887 7.59544 51.2483 8.85806 53.7235C11.5914 59.1165 14.3063 64.1833 14.3341 64.2345C14.3857 64.3333 14.4005 64.4474 14.3757 64.5562L12.7754 72.2146Z" fill="#093F68"/>
<path d="M47.197 0H18.0697C16.0483 0 14.4095 1.64742 14.4095 3.67961V60.7394C14.4095 62.7716 16.0483 64.419 18.0697 64.419H47.197C49.2184 64.419 50.8572 62.7716 50.8572 60.7394V3.67961C50.8572 1.64742 49.2184 0 47.197 0Z" fill="white"/>
<path d="M47.5868 64.419H18.5276C17.4353 64.4166 16.3886 63.9843 15.6168 63.2168C14.8449 62.4493 14.4108 61.4093 14.4095 60.3245V4.09451C14.4108 3.00976 14.8449 1.96971 15.6168 1.20224C16.3886 0.43477 17.4353 0.00245073 18.5276 0H47.5868C48.679 0.00245073 49.7257 0.43477 50.4976 1.20224C51.2695 1.96971 51.7036 3.00976 51.7048 4.09451V60.3245C51.7036 61.4093 51.2695 62.4493 50.4976 63.2168C49.7257 63.9843 48.679 64.4166 47.5868 64.419ZM18.5276 0.921728C17.6819 0.924181 16.8717 1.25954 16.2747 1.85428C15.6776 2.44903 15.3423 3.25464 15.3423 4.09451V60.3245C15.3435 61.1636 15.6793 61.968 16.2763 62.5618C16.8733 63.1555 17.6827 63.4902 18.5276 63.4927H47.5868C48.432 63.4915 49.2422 63.1571 49.8394 62.5631C50.4366 61.9691 50.7721 61.164 50.7721 60.3245V4.09451C50.7721 3.25507 50.4366 2.44994 49.8394 1.85593C49.2422 1.26192 48.432 0.927587 47.5868 0.92636L18.5276 0.921728Z" fill="#093F68"/>
<path d="M47.2422 6.78125H18.8721C17.8119 6.78125 16.9524 7.64515 16.9524 8.71083V54.0136C16.9524 55.0793 17.8119 55.9432 18.8721 55.9432H47.2422C48.3024 55.9432 49.1619 55.0793 49.1619 54.0136V8.71083C49.1619 7.64515 48.3024 6.78125 47.2422 6.78125Z" fill="#68E1FD"/>
<path d="M46.8369 56.7907H19.2729C18.6578 56.7895 18.0683 56.5324 17.6334 56.0758C17.1985 55.6191 16.9536 55.0002 16.9524 54.3544V8.36515C16.9536 7.71982 17.1986 7.10136 17.6337 6.64549C18.0687 6.18962 18.6583 5.93359 19.2729 5.93359H46.846C47.4602 5.93359 48.0493 6.18978 48.4836 6.64578C48.9179 7.10178 49.1619 7.72026 49.1619 8.36515V54.3544C49.1619 54.6748 49.1017 54.992 48.9848 55.2879C48.8679 55.5838 48.6966 55.8526 48.4806 56.0788C48.2647 56.3051 48.0083 56.4845 47.7263 56.6067C47.4442 56.7288 47.142 56.7914 46.8369 56.7907ZM19.2729 6.88902C19.0879 6.88839 18.9046 6.92611 18.7335 7.00001C18.5624 7.07391 18.4068 7.18254 18.2758 7.31967C18.1448 7.45681 18.0408 7.61975 17.9699 7.79915C17.8989 7.97855 17.8624 8.1709 17.8624 8.36515V54.3544C17.8624 54.7472 18.011 55.1238 18.2755 55.4016C18.54 55.6793 18.8988 55.8353 19.2729 55.8353H46.846C47.2193 55.834 47.5769 55.6775 47.8404 55.3999C48.1039 55.1223 48.2519 54.7463 48.2519 54.3544V8.36515C48.2519 7.97365 48.1038 7.59819 47.8401 7.32137C47.5765 7.04454 47.2188 6.88902 46.846 6.88902H19.2729Z" fill="#093F68"/>
<path d="M27.1238 4.23824C27.5919 4.23824 27.9714 4.0485 27.9714 3.81443C27.9714 3.58037 27.5919 3.39062 27.1238 3.39062C26.6557 3.39062 26.2762 3.58037 26.2762 3.81443C26.2762 4.0485 26.6557 4.23824 27.1238 4.23824Z" fill="#093F68"/>
<path d="M39.3408 4.23824H29.3163C29.1844 4.23824 29.0579 4.19359 28.9647 4.11411C28.8714 4.03463 28.819 3.92684 28.819 3.81443C28.819 3.70203 28.8714 3.59424 28.9647 3.51476C29.0579 3.43528 29.1844 3.39062 29.3163 3.39062H39.3408C39.4727 3.39062 39.5992 3.43528 39.6924 3.51476C39.7857 3.59424 39.8381 3.70203 39.8381 3.81443C39.8381 3.92684 39.7857 4.03463 39.6924 4.11411C39.5992 4.19359 39.4727 4.23824 39.3408 4.23824Z" fill="#093F68"/>
<path d="M32.6333 61.8758C33.8036 61.8758 34.7524 61.1168 34.7524 60.1806C34.7524 59.2443 33.8036 58.4854 32.6333 58.4854C31.463 58.4854 30.5143 59.2443 30.5143 60.1806C30.5143 61.1168 31.463 61.8758 32.6333 61.8758Z" fill="white"/>
<path d="M33.0618 62.7234C32.5585 62.7243 32.0662 62.5759 31.6473 62.2968C31.2284 62.0177 30.9018 61.6207 30.7087 61.1558C30.5157 60.691 30.4649 60.1793 30.5629 59.6856C30.6609 59.1919 30.9032 58.7384 31.2591 58.3825C31.615 58.0266 32.0685 57.7843 32.5622 57.6863C33.0559 57.5884 33.5676 57.6391 34.0324 57.8322C34.4972 58.0252 34.8943 58.3518 35.1734 58.7707C35.4524 59.1896 35.6009 59.6819 35.6 60.1852C35.5988 60.858 35.3309 61.5029 34.8552 61.9786C34.3795 62.4544 33.7346 62.7222 33.0618 62.7234ZM33.0618 58.5755C32.7432 58.5746 32.4316 58.6682 32.1662 58.8445C31.9009 59.0208 31.6939 59.2719 31.5713 59.566C31.4488 59.86 31.4162 60.1838 31.4778 60.4964C31.5394 60.8089 31.6923 61.0962 31.9173 61.3218C32.1422 61.5474 32.429 61.7011 32.7414 61.7636C33.0538 61.8261 33.3777 61.7945 33.6721 61.6728C33.9665 61.5511 34.2181 61.3448 34.3952 61.08C34.5723 60.8152 34.6668 60.5038 34.6668 60.1852C34.6656 59.7595 34.4963 59.3515 34.1957 59.05C33.8951 58.7485 33.4875 58.578 33.0618 58.5755Z" fill="#DFEAEF"/>
<path d="M52.785 24.5811H47.2341C45.9582 24.5811 44.9238 25.7377 44.9238 27.1645V28.7785C44.9238 30.2054 45.9582 31.362 47.2341 31.362H52.785C54.0609 31.362 55.0953 30.2054 55.0953 28.7785V27.1645C55.0953 25.7377 54.0609 24.5811 52.785 24.5811Z" fill="#FFC9B0"/>
<path d="M52.3416 32.2096H46.8253C46.0962 32.2096 45.3969 31.891 44.8814 31.3237C44.3658 30.7565 44.0762 29.9872 44.0762 29.185V27.6057C44.0762 26.8035 44.3658 26.0342 44.8814 25.4669C45.3969 24.8997 46.0962 24.5811 46.8253 24.5811H52.3416C53.0711 24.5811 53.7708 24.8996 54.2871 25.4666C54.8034 26.0337 55.094 26.803 55.0952 27.6057V29.185C55.094 29.9877 54.8034 30.757 54.2871 31.324C53.7708 31.8911 53.0711 32.2096 52.3416 32.2096ZM46.8253 25.5744C46.3356 25.5744 45.866 25.7884 45.5198 26.1693C45.1735 26.5503 44.979 27.0669 44.979 27.6057V29.185C44.9802 29.7234 45.1751 30.2393 45.5211 30.6199C45.8671 31.0006 46.336 31.215 46.8253 31.2163H52.3416C52.8317 31.2163 53.3017 31.0025 53.6487 30.6217C53.9957 30.2409 54.1912 29.7242 54.1924 29.185V27.6057C54.1912 27.0665 53.9957 26.5498 53.6487 26.169C53.3017 25.7882 52.8317 25.5744 52.3416 25.5744H46.8253Z" fill="#093F68"/>
<path d="M54.2723 32.21H47.442C46.0512 32.21 44.9238 33.2956 44.9238 34.6348V35.7184C44.9238 37.0577 46.0512 38.1433 47.442 38.1433H54.2723C55.6631 38.1433 56.7905 37.0577 56.7905 35.7184V34.6348C56.7905 33.2956 55.6631 32.21 54.2723 32.21Z" fill="#FFC9B0"/>
<path d="M53.8331 38.9909H47.0381C46.2529 38.9897 45.5003 38.6889 44.945 38.1543C44.3898 37.6198 44.0774 36.895 44.0762 36.139V35.0574C44.0774 34.3018 44.39 33.5776 44.9453 33.0437C45.5007 32.5098 46.2533 32.21 47.0381 32.21H53.8331C54.6175 32.21 55.3697 32.51 55.9243 33.044C56.4789 33.578 56.7905 34.3022 56.7905 35.0574V36.139C56.7905 36.8946 56.479 37.6194 55.9246 38.1541C55.3701 38.6888 54.6179 38.9897 53.8331 38.9909ZM47.0381 33.0929C46.4966 33.0929 45.9771 33.2997 45.5937 33.668C45.2104 34.0363 44.9944 34.536 44.9932 35.0574V36.139C44.9932 36.6612 45.2086 37.162 45.5921 37.5313C45.9756 37.9005 46.4958 38.108 47.0381 38.108H53.8331C54.1028 38.1097 54.3702 38.0601 54.6199 37.9619C54.8696 37.8638 55.0966 37.719 55.288 37.536C55.4793 37.353 55.6312 37.1353 55.7348 36.8956C55.8385 36.6558 55.8918 36.3987 55.8918 36.139V35.0574C55.8906 34.5368 55.6752 34.0378 55.2929 33.6696C54.9105 33.3014 54.3922 33.0941 53.8515 33.0929H47.0381Z" fill="#093F68"/>
<path d="M54.2723 38.9902H47.442C46.0512 38.9902 44.9238 40.231 44.9238 41.7615V42.9999C44.9238 44.5305 46.0512 45.7712 47.442 45.7712H54.2723C55.6631 45.7712 56.7905 44.5305 56.7905 42.9999V41.7615C56.7905 40.231 55.6631 38.9902 54.2723 38.9902Z" fill="#FFC9B0"/>
<path d="M53.8331 46.6188H47.0381C46.2529 46.6175 45.5002 46.2793 44.945 45.6783C44.3898 45.0772 44.0774 44.2625 44.0762 43.4125V42.1965C44.0774 41.3466 44.3898 40.5318 44.945 39.9308C45.5002 39.3298 46.2529 38.9915 47.0381 38.9902H53.8331C54.6178 38.9915 55.37 39.3299 55.9245 39.9311C56.479 40.5322 56.7904 41.347 56.7904 42.1965V43.3976C56.7922 43.8195 56.7171 44.2376 56.5694 44.628C56.4216 45.0184 56.2041 45.3734 55.9294 45.6727C55.6547 45.9719 55.3281 46.2095 54.9684 46.3719C54.6086 46.5343 54.2228 46.6182 53.8331 46.6188ZM47.0381 39.9829C46.4958 39.9829 45.9756 40.2161 45.5921 40.6312C45.2086 41.0464 44.9932 41.6094 44.9932 42.1965V43.3976C44.9932 43.9847 45.2086 44.5478 45.5921 44.9629C45.9756 45.378 46.4958 45.6113 47.0381 45.6113H53.8331C54.1028 45.6132 54.3702 45.5574 54.6199 45.447C54.8696 45.3367 55.0966 45.1739 55.288 44.9682C55.4793 44.7624 55.6312 44.5177 55.7348 44.2482C55.8384 43.9787 55.8918 43.6896 55.8918 43.3976V42.1816C55.8918 41.5954 55.677 41.0331 55.2944 40.6181C54.9119 40.2031 54.393 39.9693 53.8514 39.968L47.0381 39.9829Z" fill="#093F68"/>
<path d="M52.785 47.4668H47.2341C45.9582 47.4668 44.9238 48.3343 44.9238 49.4044V50.6149C44.9238 51.685 45.9582 52.5525 47.2341 52.5525H52.785C54.0609 52.5525 55.0953 51.685 55.0953 50.6149V49.4044C55.0953 48.3343 54.0609 47.4668 52.785 47.4668Z" fill="#FFC9B0"/>
<path d="M52.3416 53.4001H46.8253C46.0962 53.4001 45.3969 53.1168 44.8814 52.6126C44.3658 52.1084 44.0762 51.4246 44.0762 50.7116V49.3077C44.0762 48.5946 44.3658 47.9108 44.8814 47.4066C45.3969 46.9024 46.0962 46.6191 46.8253 46.6191H52.3416C53.0711 46.6191 53.7708 46.9023 54.2871 47.4063C54.8034 47.9104 55.094 48.5942 55.0952 49.3077V50.7116C55.094 51.425 54.8034 52.1088 54.2871 52.6129C53.7708 53.117 53.0711 53.4001 52.3416 53.4001ZM46.8253 47.5021C46.336 47.5032 45.8671 47.6939 45.5211 48.0322C45.1751 48.3706 44.9802 48.8292 44.979 49.3077V50.7116C44.979 51.1904 45.1735 51.6497 45.5198 51.9883C45.866 52.3269 46.3356 52.5172 46.8253 52.5172H52.3416C52.8317 52.5172 53.3017 52.3271 53.6487 51.9886C53.9957 51.6501 54.1912 51.1908 54.1924 50.7116V49.3077C54.1912 48.8284 53.9957 48.3691 53.6487 48.0307C53.3017 47.6922 52.8317 47.5021 52.3416 47.5021H46.8253Z" fill="#093F68"/>
<path d="M12.8159 43.2286C12.8159 43.2286 21.0822 31.9406 22.7078 27.2248C23.6267 24.5481 20.7311 22.8043 19.8338 22.8887C16.6998 23.1934 11.8666 30.975 11.8666 30.975" fill="#FFC9B0"/>
<path d="M12.3991 44.0762C12.3176 44.0767 12.2376 44.0523 12.1684 44.006C12.0991 43.9597 12.0434 43.8932 12.0077 43.8142C11.972 43.7353 11.9577 43.6471 11.9664 43.5597C11.9752 43.4724 12.0066 43.3895 12.0572 43.3206C12.1394 43.2086 20.2802 32.0934 21.8686 27.5223C22.0135 27.1368 22.0583 26.716 21.998 26.3051C21.9378 25.8942 21.7748 25.5087 21.5267 25.1901C20.8818 24.2572 19.7955 23.7908 19.445 23.8188C17.0473 24.052 13.1218 29.556 11.8105 31.6596C11.7463 31.7611 11.6477 31.8313 11.5359 31.8548C11.424 31.8784 11.3081 31.8535 11.2132 31.7856C11.1656 31.7517 11.1247 31.708 11.0929 31.657C11.061 31.606 11.0388 31.5488 11.0276 31.4885C11.0163 31.4283 11.0162 31.3662 11.0273 31.3059C11.0383 31.2456 11.0603 31.1883 11.092 31.1372C11.2954 30.8154 16.0692 23.2078 19.3671 22.8906C20.0768 22.8206 21.4315 23.5156 22.2148 24.6211C22.5495 25.0625 22.7689 25.5922 22.8503 26.1555C22.9317 26.7188 22.8722 27.2953 22.6779 27.8255C21.0549 32.5365 13.0742 43.4232 12.7237 43.8803C12.6865 43.9369 12.638 43.9839 12.5819 44.0178C12.5257 44.0517 12.4633 44.0716 12.3991 44.0762Z" fill="#093F68"/>
<path d="M40.9898 80.5238L8.4762 73.346L10.2296 66.9619L42.381 73.7674L40.9898 80.5238Z" fill="white"/>
<path d="M40.558 80.5204C40.5252 80.5249 40.492 80.5249 40.4593 80.5204L8.84482 73.8125C8.78207 73.8007 8.72268 73.7757 8.67078 73.7394C8.61888 73.7031 8.5757 73.6562 8.54422 73.602C8.51126 73.549 8.48968 73.49 8.4808 73.4287C8.47192 73.3673 8.47592 73.3049 8.49256 73.2451L10.1975 67.2967C10.2296 67.1846 10.3042 67.0887 10.4063 67.0283C10.5084 66.968 10.6302 66.9478 10.747 66.9718L42.0093 73.3274C42.1307 73.3524 42.2371 73.4231 42.3052 73.5242C42.3728 73.6256 42.3964 73.749 42.3709 73.8674L41.0182 80.1818C40.9927 80.3002 40.9201 80.4038 40.8163 80.4701C40.7369 80.5106 40.6472 80.528 40.558 80.5204ZM9.53057 73.0026L40.1963 79.5092L41.3564 74.0962L10.9866 67.9235L9.53057 73.0026Z" fill="#093F68"/>
<path d="M43.3595 88.1526L44.0762 79.6792L5.47886 72.0479L0 88.1526H43.3595Z" fill="#F56132"/>
<path d="M42.9212 89.0002H0.473434C0.397962 89.0006 0.323502 88.9824 0.256327 88.9471C0.189153 88.9118 0.13123 88.8605 0.0874566 88.7974C0.0437443 88.7345 0.0153781 88.6617 0.00473069 88.5853C-0.00591668 88.5088 0.00147038 88.4308 0.0262705 88.3579L5.38754 72.3712C5.42507 72.2613 5.50003 72.169 5.59864 72.1113C5.69724 72.0536 5.81284 72.0344 5.92414 72.0572L43.6931 79.6304C43.8078 79.6527 43.9103 79.7179 43.9808 79.8134C44.0512 79.9089 44.0846 80.0279 44.0744 80.1472L43.3683 88.5559C43.3593 88.6731 43.3089 88.7829 43.2266 88.8647C43.1442 88.9465 43.0356 88.9947 42.9212 89.0002ZM1.15124 88.0343H42.4881L43.1189 80.4949L6.1642 73.086L1.15124 88.0343Z" fill="#093F68"/>
<path d="M23.3622 34.7528C23.2717 34.7537 23.1827 34.7296 23.1061 34.6834C23.0294 34.6372 22.9683 34.5709 22.93 34.4923C22.8917 34.4138 22.8778 34.3263 22.8901 34.2404C22.9023 34.1545 22.9401 34.0738 22.999 34.0079L43.2459 11.1776C43.2862 11.1325 43.3354 11.0955 43.3906 11.0686C43.4458 11.0417 43.506 11.0255 43.5678 11.0209C43.6295 11.0163 43.6916 11.0234 43.7505 11.0417C43.8094 11.0601 43.864 11.0894 43.9111 11.1279C43.9582 11.1664 43.9969 11.2135 44.0249 11.2663C44.053 11.3192 44.07 11.3768 44.0748 11.4359C44.0796 11.495 44.0722 11.5545 44.053 11.6108C44.0338 11.6672 44.0032 11.7194 43.963 11.7645L23.7208 34.5948C23.6765 34.6444 23.6215 34.6842 23.5596 34.7114C23.4977 34.7387 23.4304 34.7528 23.3622 34.7528Z" fill="white"/>
<path d="M22.5146 51.7051C22.3944 51.7047 22.2789 51.6586 22.1912 51.576C22.0988 51.4902 22.0439 51.3711 22.0385 51.2447C22.0332 51.1183 22.0778 50.9949 22.1627 50.9015L40.7077 30.6683C40.7934 30.5751 40.9125 30.5199 41.0387 30.515C41.1649 30.5101 41.2878 30.5558 41.3805 30.642C41.4732 30.7283 41.5281 30.8481 41.533 30.975C41.5379 31.1019 41.4924 31.2256 41.4067 31.3189L22.8617 51.5521C22.8174 51.6002 22.7637 51.6386 22.704 51.6649C22.6442 51.6912 22.5798 51.7049 22.5146 51.7051Z" fill="white"/>
<path d="M25.0722 17.8002C24.9432 17.7998 24.8194 17.7569 24.7266 17.6805C24.6333 17.6005 24.5809 17.4922 24.5809 17.3792C24.5809 17.2663 24.6333 17.158 24.7266 17.0779L31.3527 11.1459C31.3992 11.1059 31.4546 11.0741 31.5157 11.0524C31.5767 11.0307 31.6422 11.0195 31.7083 11.0195C31.7744 11.0195 31.8398 11.0307 31.9009 11.0524C31.9619 11.0741 32.0173 11.1059 32.0639 11.1459C32.1571 11.226 32.2095 11.3343 32.2095 11.4472C32.2095 11.5602 32.1571 11.6685 32.0639 11.7485L25.4328 17.6848C25.3845 17.7234 25.3279 17.7535 25.266 17.7733C25.2041 17.7931 25.1382 17.8022 25.0722 17.8002Z" fill="white"/>
<path d="M11.019 82.2195C12.4234 82.2195 13.5619 81.081 13.5619 79.6766C13.5619 78.2723 12.4234 77.1338 11.019 77.1338C9.61467 77.1338 8.4762 78.2723 8.4762 79.6766C8.4762 81.081 9.61467 82.2195 11.019 82.2195Z" fill="#FFBC0E"/>
<path d="M10.5999 83.0671C10.0129 83.0681 9.4389 82.8702 8.95043 82.4982C8.46196 82.1263 8.081 81.5972 7.85575 80.9777C7.63051 80.3583 7.5711 79.6764 7.68505 79.0184C7.799 78.3603 8.08118 77.7557 8.49589 77.281C8.9106 76.8063 9.43921 76.4829 10.0148 76.3517C10.5904 76.2204 11.1871 76.2872 11.7295 76.5437C12.2719 76.8002 12.7355 77.2347 13.0616 77.7924C13.3878 78.3501 13.5619 79.0058 13.5619 79.6766C13.5619 80.5749 13.25 81.4365 12.6946 82.0722C12.1393 82.7079 11.3859 83.0657 10.5999 83.0671ZM10.5999 77.3427C10.1947 77.3417 9.79831 77.4781 9.46101 77.7347C9.12372 77.9914 8.86067 78.3566 8.70518 78.7843C8.5497 79.2119 8.50878 79.6827 8.58761 80.1369C8.66644 80.5912 8.86147 81.0084 9.14799 81.3359C9.43452 81.6634 9.79963 81.8862 10.1971 81.9763C10.5946 82.0664 11.0065 82.0197 11.3807 81.842C11.7548 81.6643 12.0745 81.3636 12.299 80.9782C12.5236 80.5927 12.6429 80.1397 12.642 79.6766C12.6439 79.3688 12.5924 79.0636 12.4906 78.7786C12.3888 78.4936 12.2386 78.2345 12.0488 78.0161C11.859 77.7977 11.6332 77.6244 11.3846 77.5061C11.1359 77.3878 10.8692 77.3269 10.5999 77.3269V77.3427Z" fill="#093F68"/>
</svg>
