<svg width="36" height="36" viewBox="0 0 36 36" fill="none" xmlns="http://www.w3.org/2000/svg">
<path d="M22.2448 0.441406C23.4364 0.457966 24.5733 0.684046 25.6349 1.22405C26.5709 1.70321 27.3341 2.37317 27.855 3.29657C28.1936 3.90615 28.4156 4.57344 28.5099 5.26433C28.7035 6.59057 28.5077 7.87361 28.0703 9.12821C27.8133 9.86405 27.4576 10.5542 27.0724 11.232C26.2876 12.6119 25.2792 13.8078 24.1063 14.868C22.6016 16.2296 20.9515 17.4213 19.1859 18.4216C18.5019 18.8079 17.7927 19.1322 17.0298 19.3306C16.5625 19.4568 16.08 19.5179 15.5959 19.512C14.9587 19.4991 14.4601 19.2089 14.0724 18.72C13.7144 18.2813 13.5299 17.7263 13.554 17.1605C13.5582 17.0031 13.581 16.8468 13.6217 16.6947C13.8525 15.875 14.166 15.0898 14.6347 14.3738C14.9929 13.8269 15.4199 13.3413 15.9783 12.9939C16.5993 12.6072 17.2743 12.442 18.0043 12.6015C18.2326 12.655 18.4474 12.7549 18.6354 12.8949C19.116 13.2383 19.0908 13.7772 18.8601 14.1214C18.6624 14.4205 18.4414 14.7035 18.1991 14.9678C17.7887 15.4098 17.3527 15.8278 16.9272 16.2555C16.5507 16.6338 16.1968 17.0309 15.9099 17.4834C15.7612 17.7182 15.624 17.9576 15.583 18.2394C15.5311 18.593 15.7147 18.8338 16.0715 18.8669C16.2561 18.882 16.4419 18.8633 16.6198 18.8118C17.1681 18.6603 17.6771 18.4158 18.1771 18.1523C18.9483 17.7444 19.66 17.2458 20.3537 16.7199C21.1947 16.0823 22.0122 15.4174 22.7657 14.678C23.6239 13.8366 24.3889 12.9222 24.9743 11.8671C25.402 11.0967 25.717 10.2831 25.857 9.41045C25.9809 8.64185 25.9117 7.89305 25.5557 7.18745C25.3842 6.83868 25.1161 6.54662 24.7831 6.34613C24.6294 6.25359 24.4599 6.19036 24.2831 6.15965C23.6398 6.04553 23.0173 6.13913 22.4057 6.34325C21.7681 6.55637 21.1767 6.86741 20.6017 7.20725C19.354 7.94741 18.1048 8.68721 16.9157 9.52061C16.3195 9.93821 15.7417 10.3824 15.1575 10.8166C14.6297 11.209 14.1055 11.6061 13.5288 11.9268C13.0608 12.1933 12.5542 12.3856 12.0273 12.4967C11.3742 12.6292 10.7723 12.5061 10.2193 12.1511C9.6455 11.7828 9.24374 11.2774 9.06734 10.6085C8.95502 10.1862 8.9993 9.76757 9.09614 9.35069C9.23762 8.73869 9.50618 8.18429 9.84098 7.65869C10.669 6.36053 11.7101 5.25929 12.9208 4.31789C14.715 2.92289 16.6893 1.84865 18.8248 1.07141C19.9212 0.670356 21.0774 0.457361 22.2448 0.441406Z" fill="#E20010"/>
<path d="M7.48344 30.1213C7.47732 29.7138 7.43088 29.3473 7.19544 29.0294C7.08079 28.8758 6.92206 28.7608 6.7404 28.6997C6.2724 28.5319 5.79576 28.5517 5.331 28.6954C4.9584 28.8106 4.59912 28.9675 4.23444 29.1076C4.16244 29.1342 4.09692 29.1684 4.0098 29.2073C3.83808 28.7814 3.66924 28.3681 3.49248 27.9361C3.74844 27.8148 3.98964 27.691 4.2384 27.5848C4.81152 27.3396 5.40588 27.1715 6.03084 27.1337C6.6558 27.0959 7.27248 27.129 7.84128 27.4321C8.4846 27.7727 8.949 28.2644 9.1434 28.9801C9.17144 29.0738 9.18824 29.1705 9.19344 29.2681C9.21828 30.1973 9.25176 31.1264 9.25572 32.0556C9.25824 32.6906 9.21648 33.326 9.19776 33.9614C9.19441 34.0486 9.15813 34.1312 9.09624 34.1926C8.65164 34.6822 8.10768 35.0206 7.49136 35.2477C6.83046 35.4889 6.12665 35.59 5.4246 35.5447C4.7766 35.5087 4.21716 35.2434 3.74412 34.8031C3.27108 34.3628 2.9406 33.8311 2.84844 33.1795C2.72244 32.2871 2.97984 31.5127 3.62136 30.8755C4.03392 30.4658 4.54224 30.2542 5.115 30.1793C5.7486 30.0968 6.38436 30.1188 7.02012 30.1206L7.48344 30.1213ZM7.40028 31.5721C7.36293 31.5648 7.32519 31.5596 7.28724 31.5566C7.07124 31.5523 6.85272 31.5448 6.63564 31.548C6.37536 31.552 6.114 31.553 5.85516 31.5775C5.58768 31.6031 5.32812 31.6812 5.12076 31.8598C4.7766 32.1564 4.67436 32.5438 4.75824 32.9804C4.86264 33.5204 5.16432 33.8977 5.70216 34.0583C5.97948 34.1412 6.27312 34.1536 6.55644 34.0943C6.81978 34.0461 7.0654 33.9282 7.2678 33.753C7.30206 33.7264 7.33023 33.6928 7.35041 33.6544C7.3706 33.6161 7.38232 33.5738 7.3848 33.5305C7.39308 33.3408 7.41756 33.1514 7.419 32.9617C7.42188 32.5272 7.4154 32.0927 7.4118 31.6582C7.40964 31.6293 7.40579 31.6006 7.40028 31.5721Z" fill="#E20010"/>
<path d="M29.1362 31.5356C27.5919 31.5356 26.0763 31.5025 24.5394 31.5428C24.5473 31.6508 24.552 31.7531 24.5617 31.8528C24.6013 32.2607 24.6892 32.657 24.8616 33.0311C24.9957 33.3362 25.2038 33.603 25.4671 33.8072C25.8847 34.1244 26.3614 34.1762 26.8614 34.1118C27.2747 34.0585 27.6595 33.9073 28.0433 33.755C28.2193 33.6856 28.3939 33.611 28.5833 33.5336C28.7633 33.9102 28.9397 34.2803 29.1233 34.6612C29.0894 34.6856 29.0578 34.713 29.0225 34.7332C28.2737 35.1774 27.4695 35.4636 26.6008 35.5392C25.8088 35.608 25.0528 35.478 24.3688 35.0399C23.9029 34.7414 23.5768 34.3199 23.3039 33.8483C22.9678 33.2615 22.7643 32.6083 22.7077 31.9345C22.5935 30.706 22.8544 29.5621 23.4904 28.503C23.9339 27.7668 24.5959 27.3668 25.4247 27.229C26.1864 27.095 26.9711 27.2256 27.6484 27.599C28.0278 27.8046 28.292 28.1282 28.5098 28.4911C28.7978 28.9696 28.9494 29.497 29.0221 30.0434C29.0812 30.4841 29.0999 30.9301 29.1352 31.3754C29.1395 31.4212 29.1362 31.4687 29.1362 31.5356ZM27.2643 30.137C27.1746 29.7263 27.1134 29.3065 26.8445 28.9584C26.7096 28.7854 26.5202 28.6631 26.307 28.6114C25.74 28.4612 25.1701 28.7226 24.9264 29.2594C24.8393 29.4505 24.7882 29.6582 24.7248 29.8595C24.6964 29.9506 24.678 30.0452 24.6553 30.137C24.8076 30.1774 27.1084 30.1792 27.265 30.1381L27.2643 30.137Z" fill="#E20010"/>
<path d="M19.0046 25.2617L20.8474 24.9766V27.2399C21.2564 27.2644 21.6459 27.2377 22.0376 27.2798V28.6741C21.6416 28.6806 21.2539 28.6687 20.8496 28.6932V28.889C20.8462 30.2311 20.8434 31.5733 20.841 32.9157C20.841 33.127 20.8579 33.3387 20.877 33.5493C20.9072 33.8733 21.0868 34.0788 21.4008 34.1577C21.5739 34.2016 21.7518 34.2264 21.9274 34.2599L22.1038 34.2959V35.4792C22.084 35.489 22.0629 35.496 22.0412 35.5001C21.5181 35.5235 20.9972 35.5098 20.4914 35.3561C19.9975 35.2071 19.5856 34.9371 19.3063 34.4921C19.1475 34.2401 19.0669 33.9568 19.032 33.6641C19.0108 33.4808 19.0005 33.2964 19.001 33.1119C19.001 30.5631 19.0024 28.0145 19.0053 25.4662L19.0046 25.2617Z" fill="#E20010"/>
<path d="M30.1492 25.263L31.9312 24.9541V25.2C31.9312 27.5148 31.9322 29.8296 31.9341 32.1444C31.9341 32.5681 31.9377 32.9918 31.9409 33.4159C31.9438 33.8342 32.0965 34.0473 32.4961 34.1719C32.6319 34.2094 32.7697 34.239 32.909 34.2605C32.9939 34.2763 33.08 34.2839 33.1833 34.2965V35.5053C33.1737 35.5133 33.1624 35.5188 33.1502 35.5215C32.644 35.5421 32.14 35.5338 31.6479 35.3898C31.3497 35.3039 31.0721 35.1584 30.8318 34.9621C30.3843 34.596 30.2022 34.1053 30.1554 33.552C30.1417 33.39 30.1435 33.2262 30.1438 33.0635C30.1438 30.5312 30.1456 27.9992 30.1492 25.4675V25.263Z" fill="#E20010"/>
<path d="M15.4225 35.3985H13.6225C13.6203 35.3232 13.6167 35.2545 13.6164 35.1864C13.6145 34.105 13.6129 33.0235 13.6117 31.9421C13.6095 31.0781 13.6041 30.2141 13.6045 29.3501C13.6051 29.1934 13.6171 29.037 13.6405 28.8821C13.6671 28.7053 13.7597 28.5581 13.8882 28.4339C14.5952 27.7456 15.4423 27.333 16.4082 27.1552C17.0135 27.0442 17.6339 27.0433 18.2395 27.1527C18.2715 27.1584 18.3036 27.1656 18.3349 27.1735C18.3504 27.1775 18.3651 27.1851 18.395 27.1966C18.1905 27.7164 17.9414 28.2132 17.7067 28.7043C17.4263 28.7043 17.1606 28.696 16.8956 28.7061C16.4381 28.7212 15.9889 28.8331 15.5777 29.0344C15.461 29.0916 15.4175 29.1629 15.4178 29.2972C15.4229 31.2652 15.4241 33.2332 15.4214 35.2012L15.4225 35.3985Z" fill="#E20010"/>
<path d="M12.2941 27.3164C12.3132 30.0135 12.2923 32.6948 12.3096 35.3926H10.5481C10.5438 35.3275 10.5352 35.2594 10.5352 35.1914C10.5352 33.4958 10.5352 31.8 10.5352 30.1039C10.5352 29.3266 10.5416 28.5494 10.5449 27.7722C10.5449 27.7131 10.5449 27.6541 10.5449 27.5799L12.2941 27.3164Z" fill="#E20010"/>
<path d="M11.34 26.522C10.48 26.5199 9.94142 25.6638 10.2982 24.8556C10.5174 24.3599 10.894 24.1716 11.4372 24.1748C12.1651 24.181 12.7048 24.9049 12.5313 25.6123C12.3927 26.1775 11.9391 26.5235 11.34 26.522Z" fill="#E20010"/>
</svg>
