<svg width="175" height="75" viewBox="0 0 175 75" fill="none" xmlns="http://www.w3.org/2000/svg">
    <rect width="175" height="74.2" rx="10" fill="white" />
    <path d="M48.5349 37.5767C48.5349 34.335 51.1688 32.7142 51.3714 32.6129C49.8519 30.3843 47.4206 30.0804 46.6102 30.0804C44.5842 29.8778 42.6595 31.296 41.6465 31.296C40.6334 31.296 39.0126 30.0804 37.3918 30.1817C35.2645 30.1817 33.2384 31.4986 32.1241 33.4233C29.7942 37.3741 31.5163 43.2495 33.7449 46.4912C34.8593 48.112 36.1762 49.8341 37.797 49.7328C39.4178 49.6315 40.0256 48.7198 42.0517 48.7198C43.9764 48.7198 44.5842 49.7328 46.3063 49.7328C48.0284 49.7328 49.1428 48.112 50.2571 46.5925C51.574 44.7691 52.0805 43.0469 52.0805 42.9456C51.9792 42.743 48.6362 41.4261 48.5349 37.5767Z" fill="#1D1E2C" />
    <path d="M45.2909 27.9541C46.2026 26.8398 46.8104 25.3203 46.6078 23.8008C45.2909 23.9021 43.7714 24.7125 42.7584 25.7255C41.948 26.6372 41.2389 28.258 41.4415 29.6763C42.961 29.8789 44.3792 29.0685 45.2909 27.9541Z" fill="#1D1E2C" />
    <path d="M75.994 49.216H73.7035L72.5084 45.332H68.2261L67.031 49.216H64.8401L69.1224 35.9707H71.7117L75.994 49.216ZM72.2097 43.7386L71.1142 40.253C71.0146 39.8547 70.8154 39.058 70.4171 37.7633C70.3175 38.3608 70.1183 39.1575 69.8195 40.253L68.6245 43.7386H72.2097Z" fill="#575A65" />
    <path d="M87.046 44.3369C87.046 45.9303 86.6476 47.225 85.7513 48.2208C84.9546 49.0176 83.9587 49.5155 82.8632 49.5155C81.5686 49.5155 80.6723 49.0176 80.1744 48.1213V53.2003H78.083V42.843C78.083 41.8472 78.083 40.7517 77.9834 39.6562H79.8756L79.9752 41.15C80.6723 40.0546 81.7678 39.457 83.162 39.457C84.2575 39.457 85.2534 39.8554 85.9505 40.7517C86.6476 41.648 87.046 42.843 87.046 44.3369ZM84.855 44.4365C84.855 43.5402 84.6558 42.7435 84.2575 42.1459C83.7595 41.5484 83.162 41.2496 82.3653 41.2496C81.8674 41.2496 81.3694 41.4488 80.9711 41.7476C80.5727 42.1459 80.2739 42.5443 80.1744 43.1418C80.0748 43.4406 80.0748 43.6398 80.0748 43.7393V45.3328C80.0748 46.0299 80.2739 46.6274 80.6723 47.1254C81.0707 47.6233 81.6682 47.8225 82.3653 47.8225C83.162 47.8225 83.7595 47.5237 84.2575 46.9262C84.6558 46.2291 84.855 45.4324 84.855 44.4365Z" fill="#575A65" />
    <path d="M98.002 44.3369C98.002 45.9303 97.6037 47.225 96.7074 48.2208C95.9107 49.0176 94.9148 49.5155 93.8193 49.5155C92.5246 49.5155 91.6284 49.0176 91.1304 48.1213V53.2003H89.039V42.843C89.039 41.8472 89.039 40.7517 88.9395 39.6562H90.8316L90.9312 41.15C91.6283 40.0546 92.7238 39.457 94.1181 39.457C95.2135 39.457 96.2094 39.8554 96.9066 40.7517C97.6037 41.648 98.002 42.843 98.002 44.3369ZM95.8111 44.4365C95.8111 43.5402 95.6119 42.7435 95.2135 42.1459C94.7156 41.5484 94.1181 41.2496 93.3214 41.2496C92.8234 41.2496 92.3255 41.4488 91.9271 41.7476C91.5288 42.1459 91.23 42.5443 91.1304 43.1418C91.0308 43.4406 91.0308 43.6398 91.0308 43.7393V45.3328C91.0308 46.0299 91.23 46.6274 91.6284 47.1254C92.0267 47.6233 92.6242 47.8225 93.3214 47.8225C94.1181 47.8225 94.7156 47.5237 95.2135 46.9262C95.6119 46.2291 95.8111 45.4324 95.8111 44.4365Z" fill="#575A65" />
    <path d="M110.249 45.5312C110.249 46.6267 109.85 47.6226 109.053 48.3197C108.157 49.1164 106.962 49.5148 105.468 49.5148C104.074 49.5148 102.879 49.216 102.082 48.7181L102.58 46.9255C103.477 47.523 104.572 47.8218 105.667 47.8218C106.464 47.8218 107.062 47.6226 107.56 47.3238C107.958 46.9255 108.257 46.5271 108.257 45.83C108.257 45.332 108.058 44.8341 107.659 44.4357C107.261 44.0374 106.663 43.7386 105.867 43.4399C103.576 42.5436 102.381 41.3485 102.381 39.6555C102.381 38.56 102.779 37.6637 103.576 36.9666C104.373 36.2695 105.468 35.9707 106.863 35.9707C108.058 35.9707 109.053 36.1699 109.85 36.5682L109.253 38.1617C108.456 37.7633 107.659 37.5641 106.763 37.5641C105.966 37.5641 105.468 37.7633 104.97 38.1617C104.572 38.4604 104.472 38.8588 104.472 39.3567C104.472 39.8547 104.672 40.3526 105.07 40.6514C105.468 40.9501 106.066 41.3485 106.962 41.6473C108.058 42.1452 108.954 42.6431 109.452 43.2407C110.049 43.8382 110.249 44.6349 110.249 45.5312Z" fill="#575A65" />
    <path d="M117.322 41.2492H115.031V45.9298C115.031 47.1249 115.43 47.7224 116.226 47.7224C116.625 47.7224 116.923 47.7224 117.123 47.6229L117.222 49.2163C116.824 49.4155 116.226 49.4155 115.529 49.4155C114.732 49.4155 114.035 49.1167 113.537 48.6187C113.039 48.1208 112.84 47.2245 112.84 46.0294V41.2492H111.446V39.6558H112.84V37.8632L114.932 37.2656V39.6558H117.222C117.322 39.6558 117.322 41.2492 117.322 41.2492Z" fill="#575A65" />
    <path d="M127.879 44.3369C127.879 45.8307 127.481 47.0258 126.585 47.9221C125.688 48.918 124.493 49.4159 123.099 49.4159C121.705 49.4159 120.609 48.918 119.713 48.0217C118.817 47.1254 118.418 45.9303 118.418 44.5361C118.418 43.0422 118.817 41.8472 119.713 40.8513C120.609 39.955 121.705 39.457 123.199 39.457C124.593 39.457 125.688 39.955 126.585 40.8513C127.481 41.7476 127.879 42.9426 127.879 44.3369ZM125.688 44.4365C125.688 43.5402 125.489 42.843 125.091 42.1459C124.693 41.3492 123.995 41.0504 123.199 41.0504C122.302 41.0504 121.705 41.4488 121.207 42.1459C120.809 42.7435 120.609 43.5402 120.609 44.4365C120.609 45.3328 120.809 46.0299 121.207 46.727C121.705 47.5237 122.302 47.8225 123.099 47.8225C123.896 47.8225 124.593 47.4241 124.991 46.6274C125.489 46.0299 125.688 45.3328 125.688 44.4365Z" fill="#575A65" />
    <path d="M134.752 41.5484C134.553 41.5484 134.354 41.4488 134.055 41.4488C133.258 41.4488 132.76 41.7476 132.362 42.3451C131.964 42.843 131.864 43.4406 131.864 44.2373V49.2167H129.773V42.6439C129.773 41.5484 129.773 40.5525 129.673 39.6562H131.565L131.665 41.4488H131.764C131.964 40.8513 132.362 40.3533 132.86 39.955C133.358 39.6562 133.856 39.457 134.354 39.457C134.553 39.457 134.752 39.457 134.852 39.457C134.752 39.5566 134.752 41.5484 134.752 41.5484Z" fill="#575A65" />
    <path d="M144.31 44.0382C144.31 44.4365 144.31 44.7353 144.21 45.034H137.836C137.836 45.9303 138.135 46.7271 138.733 47.225C139.23 47.6234 139.928 47.9221 140.824 47.9221C141.72 47.9221 142.617 47.7229 143.413 47.4242L143.712 48.918C142.816 49.3164 141.72 49.5155 140.525 49.5155C139.031 49.5155 137.836 49.1172 137.04 48.2209C136.243 47.3246 135.745 46.2291 135.745 44.7353C135.745 43.341 136.143 42.0464 136.94 41.1501C137.737 40.1542 138.832 39.6562 140.326 39.6562C141.72 39.6562 142.716 40.1542 143.413 41.1501C144.011 41.7476 144.31 42.8431 144.31 44.0382ZM142.218 43.4406C142.218 42.8431 142.119 42.2456 141.82 41.8472C141.421 41.2497 140.923 40.9509 140.127 40.9509C139.43 40.9509 138.832 41.2497 138.434 41.8472C138.035 42.3451 137.836 42.8431 137.836 43.5402L142.218 43.4406Z" fill="#575A65" />
    <path d="M70.2213 27.806C70.2213 29.0011 69.8229 29.8974 69.1258 30.4949C68.4287 30.9928 67.5324 31.2916 66.3373 31.2916C65.7398 31.2916 65.2419 31.2916 64.8435 31.192V24.8183C65.441 24.7187 66.0386 24.7188 66.6361 24.7188C67.7316 24.7188 68.6279 24.9179 69.2254 25.4159C69.9225 26.0134 70.2213 26.8101 70.2213 27.806ZM69.1258 27.806C69.1258 27.0093 68.9266 26.5113 68.5283 26.0134C68.1299 25.615 67.5324 25.4159 66.7357 25.4159C66.4369 25.4159 66.1382 25.4159 65.939 25.5155V30.3953C66.0386 30.3953 66.3373 30.3953 66.6361 30.3953C67.4328 30.3953 68.0303 30.1961 68.5283 29.6982C69.0262 29.2002 69.1258 28.7023 69.1258 27.806Z" fill="#575A65" />
    <path d="M76.0965 28.8022C76.0965 29.4994 75.8973 30.0969 75.4989 30.5948C75.1006 31.0928 74.503 31.292 73.8059 31.292C73.1088 31.292 72.6109 31.0928 72.1129 30.5948C71.7146 30.0969 71.5154 29.5989 71.5154 28.9018C71.5154 28.2047 71.7146 27.6072 72.1129 27.1092C72.5113 26.6113 73.1088 26.4121 73.8059 26.4121C74.503 26.4121 75.001 26.6113 75.4989 27.1092C75.8973 27.6072 76.0965 28.1051 76.0965 28.8022ZM75.001 28.9018C75.001 28.5035 74.9014 28.1051 74.7022 27.8064C74.503 27.408 74.2043 27.2088 73.8059 27.2088C73.4076 27.2088 73.1088 27.408 72.81 27.8064C72.6109 28.1051 72.5113 28.5035 72.5113 28.9018C72.5113 29.3002 72.6109 29.6985 72.81 29.9973C73.0092 30.3957 73.308 30.5948 73.8059 30.5948C74.2043 30.5948 74.503 30.3957 74.7022 29.9973C74.9014 29.6985 75.001 29.3002 75.001 28.9018Z" fill="#575A65" />
    <path d="M83.9651 26.5117L82.4713 31.1924H81.4754L80.8779 29.2006C80.6787 28.7027 80.5791 28.2047 80.4795 27.7068C80.3799 28.2047 80.2803 28.7027 80.0812 29.2006L79.4836 31.1924H78.4877L77.0935 26.5117H78.189L78.6869 28.7027C78.7865 29.2006 78.8861 29.6986 78.9857 30.1965C79.0853 29.7981 79.1849 29.3002 79.384 28.7027L80.0812 26.5117H80.9775L81.575 28.7027C81.7742 29.2006 81.8738 29.7981 81.9734 30.2961C82.0729 29.7981 82.1725 29.3002 82.2721 28.7027L82.8697 26.5117H83.9651Z" fill="#575A65" />
    <path d="M89.3432 31.1923H88.3473V28.5035C88.3473 27.7067 88.0485 27.3084 87.451 27.3084C87.1522 27.3084 86.8535 27.408 86.6543 27.6072C86.4551 27.8063 86.3555 28.1051 86.3555 28.4039V31.1923H85.3596V27.8063C85.3596 27.408 85.3596 26.91 85.3596 26.5117H86.1563V27.2088C86.2559 27.0096 86.4551 26.8104 86.6543 26.6113C86.953 26.4121 87.2518 26.3125 87.5506 26.3125C87.9489 26.3125 88.3473 26.4121 88.6461 26.7109C89.0444 27.0096 89.144 27.6072 89.144 28.3043V31.1923H89.3432Z" fill="#575A65" />
    <path d="M92.2303 31.192H91.2344V24.4199H92.2303V31.192Z" fill="#575A65" />
    <path d="M98.4068 28.8022C98.4068 29.4994 98.2076 30.0969 97.8092 30.5948C97.4109 31.0928 96.8133 31.292 96.1162 31.292C95.4191 31.292 94.9212 31.0928 94.4232 30.5948C94.0249 30.0969 93.8257 29.5989 93.8257 28.9018C93.8257 28.2047 94.0249 27.6072 94.4232 27.1092C94.8216 26.6113 95.4191 26.4121 96.1162 26.4121C96.8133 26.4121 97.3113 26.6113 97.8092 27.1092C98.2076 27.6072 98.4068 28.1051 98.4068 28.8022ZM97.3113 28.9018C97.3113 28.5035 97.2117 28.1051 97.0125 27.8064C96.8134 27.408 96.5146 27.2088 96.1162 27.2088C95.7179 27.2088 95.4191 27.408 95.1203 27.8064C94.9212 28.1051 94.8216 28.5035 94.8216 28.9018C94.8216 29.3002 94.9212 29.6985 95.1203 29.9973C95.3195 30.3957 95.6183 30.5948 96.1162 30.5948C96.5146 30.5948 96.8134 30.3957 97.0125 29.9973C97.2117 29.6985 97.3113 29.3002 97.3113 28.9018Z" fill="#575A65" />
    <path d="M103.385 31.1924H102.489L102.39 30.6944C102.091 31.0928 101.593 31.292 100.995 31.292C100.597 31.292 100.199 31.1924 99.8998 30.8936C99.7006 30.5948 99.5015 30.2961 99.5015 29.8977C99.5015 29.3002 99.7006 28.9018 100.199 28.6031C100.697 28.3043 101.394 28.1051 102.19 28.2047V28.1051C102.19 27.5076 101.892 27.2088 101.194 27.2088C100.697 27.2088 100.298 27.3084 99.9994 27.5076L99.8998 26.8105C100.298 26.5117 100.896 26.4121 101.493 26.4121C102.688 26.4121 103.286 27.0096 103.286 28.3043V29.9973C103.385 30.5948 103.385 30.9932 103.385 31.1924ZM102.29 29.5989V28.9018C101.095 28.9018 100.597 29.2006 100.597 29.7981C100.597 29.9973 100.697 30.1965 100.796 30.3957C100.896 30.4952 101.095 30.5948 101.294 30.5948C101.493 30.5948 101.692 30.4952 101.892 30.3957C102.091 30.2961 102.19 30.0969 102.29 29.7981C102.29 29.6985 102.29 29.6985 102.29 29.5989Z" fill="#575A65" />
    <path d="M109.36 31.192H108.464V30.3952C108.165 30.9928 107.667 31.2915 106.97 31.2915C106.372 31.2915 105.974 31.0924 105.576 30.5944C105.177 30.0965 104.978 29.5985 104.978 28.9014C104.978 28.1047 105.177 27.5072 105.576 27.0092C105.974 26.6109 106.472 26.3121 107.069 26.3121C107.667 26.3121 108.165 26.5113 108.364 26.9096V24.4199H109.36V29.9969C109.26 30.3952 109.36 30.7936 109.36 31.192ZM108.264 29.2002V28.4035C108.264 28.3039 108.264 28.2043 108.264 28.1047C108.165 27.8059 108.065 27.6068 107.866 27.5072C107.667 27.308 107.468 27.2084 107.169 27.2084C106.771 27.2084 106.472 27.4076 106.273 27.7064C106.073 28.0051 105.974 28.4035 105.974 28.9014C105.974 29.3994 106.073 29.6981 106.273 29.9969C106.472 30.2957 106.771 30.4948 107.169 30.4948C107.468 30.4948 107.767 30.3952 107.966 30.0965C108.165 29.8973 108.264 29.5985 108.264 29.2002Z" fill="#575A65" />
    <path d="M118.222 28.8022C118.222 29.4994 118.023 30.0969 117.624 30.5948C117.226 31.0928 116.628 31.292 115.931 31.292C115.234 31.292 114.736 31.0928 114.238 30.5948C113.84 30.0969 113.641 29.5989 113.641 28.9018C113.641 28.2047 113.84 27.6072 114.238 27.1092C114.637 26.6113 115.234 26.4121 115.931 26.4121C116.628 26.4121 117.126 26.6113 117.624 27.1092C118.023 27.6072 118.222 28.1051 118.222 28.8022ZM117.226 28.9018C117.226 28.5035 117.126 28.1051 116.927 27.8064C116.728 27.408 116.429 27.2088 116.031 27.2088C115.632 27.2088 115.334 27.408 115.035 27.8064C114.836 28.1051 114.736 28.5035 114.736 28.9018C114.736 29.3002 114.836 29.6985 115.035 29.9973C115.234 30.3957 115.533 30.5948 116.031 30.5948C116.429 30.5948 116.728 30.3957 116.927 29.9973C117.126 29.6985 117.226 29.3002 117.226 28.9018Z" fill="#575A65" />
    <path d="M123.899 31.1923H122.903V28.5035C122.903 27.7067 122.604 27.3084 121.907 27.3084C121.608 27.3084 121.31 27.408 121.11 27.6072C120.911 27.8063 120.812 28.1051 120.812 28.4039V31.1923H119.816V27.8063C119.816 27.408 119.816 26.91 119.816 26.5117H120.712V27.2088C120.812 27.0096 121.011 26.8104 121.21 26.6113C121.509 26.4121 121.807 26.3125 122.206 26.3125C122.604 26.3125 123.003 26.4121 123.301 26.7109C123.7 27.0096 123.799 27.6072 123.799 28.3043V31.1923H123.899Z" fill="#575A65" />
    <path d="M130.867 27.3082H129.672V29.5987C129.672 30.1963 129.871 30.495 130.269 30.495C130.468 30.495 130.568 30.495 130.767 30.495V31.2918C130.568 31.3913 130.269 31.3913 129.97 31.3913C129.572 31.3913 129.273 31.2918 128.974 30.993C128.775 30.6942 128.676 30.2959 128.676 29.6983V27.3082H127.979V26.5115H128.676V25.7148L129.672 25.416V26.6111H130.867V27.3082Z" fill="#575A65" />
    <path d="M136.447 31.192H135.451V28.5031C135.451 27.7064 135.153 27.2084 134.555 27.2084C134.057 27.2084 133.758 27.4076 133.559 27.9055C133.559 28.0051 133.559 28.1047 133.559 28.3039V31.0924H132.563V24.4199H133.559V27.2084C133.858 26.7105 134.356 26.4117 134.953 26.4117C135.352 26.4117 135.75 26.5113 136.049 26.8101C136.447 27.2084 136.547 27.7064 136.547 28.4035C136.447 28.4035 136.447 31.192 136.447 31.192Z" fill="#575A65" />
    <path d="M142.124 28.7027C142.124 28.9018 142.124 29.0014 142.124 29.2006H138.937C138.937 29.6986 139.136 29.9973 139.435 30.2961C139.734 30.4953 140.033 30.5949 140.431 30.5949C140.929 30.5949 141.327 30.4953 141.726 30.3957L141.925 31.0928C141.527 31.292 140.929 31.3916 140.332 31.3916C139.634 31.3916 139.037 31.1924 138.639 30.794C138.24 30.3957 138.041 29.7981 138.041 29.101C138.041 28.4039 138.24 27.8064 138.639 27.3084C139.037 26.8105 139.634 26.5117 140.232 26.5117C140.929 26.5117 141.427 26.8105 141.726 27.3084C142.025 27.6072 142.124 28.1051 142.124 28.7027ZM141.128 28.4039C141.128 28.1051 141.029 27.8064 140.929 27.6072C140.73 27.3084 140.431 27.2088 140.132 27.2088C139.834 27.2088 139.535 27.3084 139.336 27.6072C139.136 27.8064 139.037 28.1051 139.037 28.4039C138.937 28.4039 141.128 28.4039 141.128 28.4039Z" fill="#575A65" />
</svg>
