<svg width="54" height="57" viewBox="0 0 54 57" fill="none" xmlns="http://www.w3.org/2000/svg">
<path d="M29.976 18.3123C29.5961 17.9113 28.9632 17.8942 28.5623 18.274C28.1613 18.6539 28.1442 19.2868 28.524 19.6877L29.976 18.3123ZM38.25 28.5L38.976 29.1877C39.3413 28.802 39.3413 28.198 38.976 27.8123L38.25 28.5ZM28.524 37.3123C28.1442 37.7132 28.1613 38.3461 28.5623 38.726C28.9632 39.1058 29.5961 39.0887 29.976 38.6877L28.524 37.3123ZM28.524 19.6877L37.524 29.1877L38.976 27.8123L29.976 18.3123L28.524 19.6877ZM37.524 27.8123L28.524 37.3123L29.976 38.6877L38.976 29.1877L37.524 27.8123Z" fill="white"/>
<path d="M16.476 18.3123C16.0961 17.9113 15.4632 17.8942 15.0623 18.274C14.6613 18.6539 14.6442 19.2868 15.024 19.6877L16.476 18.3123ZM24.75 28.5L25.476 29.1877C25.8413 28.802 25.8413 28.198 25.476 27.8123L24.75 28.5ZM15.024 37.3123C14.6442 37.7132 14.6613 38.3461 15.0623 38.726C15.4632 39.1058 16.0961 39.0887 16.476 38.6877L15.024 37.3123ZM15.024 19.6877L24.024 29.1877L25.476 27.8123L16.476 18.3123L15.024 19.6877ZM24.024 27.8123L15.024 37.3123L16.476 38.6877L25.476 29.1877L24.024 27.8123Z" fill="white"/>
</svg>
