<svg width="24" height="24" viewBox="0 0 24 24" fill="none" xmlns="http://www.w3.org/2000/svg">
<path d="M20 12C20 16.4183 16.4183 20 12 20V22C17.5228 22 22 17.5228 22 12H20ZM12 20C7.58172 20 4 16.4183 4 12H2C2 17.5228 6.47715 22 12 22V20ZM4 12C4 7.58172 7.58172 4 12 4V2C6.47715 2 2 6.47715 2 12H4ZM12 4C16.4183 4 20 7.58172 20 12H22C22 6.47715 17.5228 2 12 2V4Z" fill="#282828"/>
<path d="M12.2929 15.7071C12.6834 16.0976 13.3166 16.0976 13.7071 15.7071C14.0976 15.3166 14.0976 14.6834 13.7071 14.2929L12.2929 15.7071ZM10 12L9.29289 11.2929C8.90237 11.6834 8.90237 12.3166 9.29289 12.7071L10 12ZM13.7071 9.70711C14.0976 9.31658 14.0976 8.68342 13.7071 8.29289C13.3166 7.90237 12.6834 7.90237 12.2929 8.29289L13.7071 9.70711ZM13.7071 14.2929L10.7071 11.2929L9.29289 12.7071L12.2929 15.7071L13.7071 14.2929ZM10.7071 12.7071L13.7071 9.70711L12.2929 8.29289L9.29289 11.2929L10.7071 12.7071Z" fill="#282828"/>
</svg>
