<svg width="66" height="56" viewBox="0 0 66 56" fill="none" xmlns="http://www.w3.org/2000/svg">
<path opacity="0.2" d="M38 56C53.464 56 66 43.464 66 28C66 12.536 53.464 0 38 0C22.536 0 10 12.536 10 28C10 43.464 22.536 56 38 56Z" fill="#FFD512"/>
<path d="M48.0584 27.9504C48.0584 33.532 43.7529 35.4287 40.1179 35.4287V36.8827H42.9217V38.8531H40.1222V41.1187H35.7451V38.8531H33.065V36.8827H35.7473V35.4092C34.5863 35.4092 27.937 35.1314 27.937 27.5425V18.4062H32.2751V27.8984C32.2751 31.8567 35.756 31.8219 35.756 31.8219V18.4063H40.1222V31.8154C40.1222 31.8154 43.7116 32.0194 43.7116 27.8376V18.4063H48.0584V27.9504Z" fill="#FFD512"/>
<path opacity="0.2" d="M28 56C43.464 56 56 43.464 56 28C56 12.536 43.464 0 28 0C12.536 0 0 12.536 0 28C0 43.464 12.536 56 28 56Z" fill="#FFD512"/>
</svg>
