<svg width="75" height="58" viewBox="0 0 75 58" fill="none" xmlns="http://www.w3.org/2000/svg">
<path opacity="0.2" d="M42.3253 58C60.1781 58 74.6507 45.0163 74.6507 29C74.6507 12.9837 60.1781 0 42.3253 0C24.4725 0 10 12.9837 10 29C10 45.0163 24.4725 58 42.3253 58Z" fill="#F2C869"/>
<path fill-rule="evenodd" clip-rule="evenodd" d="M49.3228 13.3848C43.581 13.3848 38.9248 14.8197 38.9248 16.5912V19.4363C39.4807 20.4573 43.4074 21.7485 49.3228 21.7485C55.2382 21.7485 59.1631 20.4542 59.719 19.4363V16.5912C59.7207 14.8197 55.0663 13.3848 49.3228 13.3848Z" fill="#F2C869"/>
<path fill-rule="evenodd" clip-rule="evenodd" d="M27.9677 38.6752L27.8204 38.408V38.0898C27.1943 38.5022 26.833 38.961 26.833 39.4521V42.2972C27.3889 43.3181 31.3156 44.6094 37.231 44.6094C43.1464 44.6094 47.0713 43.3151 47.629 42.2972V40.8206C45.5315 41.3952 42.7658 41.7319 39.702 41.7319C33.7743 41.7257 28.948 40.4731 27.9677 38.6752Z" fill="#EFD98B"/>
<path fill-rule="evenodd" clip-rule="evenodd" d="M29.2935 37.2802V38.1096C29.8494 39.1306 33.776 40.4218 39.6914 40.4218C45.6068 40.4218 49.5317 39.1275 50.0894 38.1096V35.2646C50.0824 35.0561 50.0157 34.8506 49.8965 34.6699V35.1148L49.7492 35.3835C48.7671 37.1798 43.9495 38.434 38.0184 38.434C34.5565 38.434 31.4681 38 29.2935 37.2802Z" fill="#E1AB4C"/>
<path fill-rule="evenodd" clip-rule="evenodd" d="M45.7136 30.3898V27.5463C45.7136 25.7763 41.0574 24.3398 35.3157 24.3398C29.5739 24.3398 24.9194 25.7747 24.9194 27.5463V30.3914C25.4736 31.4123 29.402 32.7036 35.3174 32.7036C41.2328 32.7036 45.1594 31.4077 45.7136 30.3898Z" fill="#FFD97A"/>
<path fill-rule="evenodd" clip-rule="evenodd" d="M47.1958 30.4609V30.6911L47.0485 30.9583C46.0664 32.7546 41.2488 34.0088 35.3176 34.0088C32.3731 34.0088 29.6986 33.6983 27.6362 33.1654V34.8181C28.1922 35.8391 32.1188 37.1303 38.0342 37.1303C43.9496 37.1303 47.8745 35.836 48.4322 34.8181V31.9715C48.4322 31.4247 47.9815 30.9089 47.1958 30.4609V30.4609Z" fill="#FAC04A"/>
<path fill-rule="evenodd" clip-rule="evenodd" d="M38.9268 21.2002V23.2297C42.0677 23.5695 44.9018 24.3712 46.289 25.6794C47.229 25.7566 48.2444 25.7999 49.3247 25.7999C55.2384 25.7999 59.165 24.5055 59.7209 23.4877V21.2002C57.5516 22.4219 53.4197 23.0537 49.323 23.0537C45.2262 23.0537 41.0961 22.4219 38.9268 21.2002Z" fill="#F4CE83"/>
<path fill-rule="evenodd" clip-rule="evenodd" d="M47.1323 27.0421C47.1727 27.2104 47.1937 27.3819 47.1937 27.5533V28.982C47.7339 29.2137 48.2389 29.5056 48.6932 29.8501H49.321C55.2346 29.8501 59.1613 28.5557 59.7172 27.5379V25.252C57.5478 26.4752 53.4178 27.107 49.321 27.107C48.5914 27.1039 47.8531 27.0838 47.1323 27.0421Z" fill="#FFDA7F"/>
<path fill-rule="evenodd" clip-rule="evenodd" d="M49.9119 31.9734V32.809C50.3749 33.0901 50.7748 33.4469 51.0887 33.8578C56.0097 33.6323 59.2226 32.4955 59.7206 31.5888V29.2998C57.6249 30.4798 53.7018 31.1085 49.7471 31.1486C49.854 31.4127 49.9102 31.6923 49.9119 31.9734Z" fill="#E8C278"/>
<path fill-rule="evenodd" clip-rule="evenodd" d="M51.5762 35.2645V37.8825C56.2167 37.6061 59.2384 36.5202 59.7189 35.6368V33.3555C57.9459 34.3532 54.8663 34.9572 51.564 35.1456C51.5692 35.1827 51.5762 35.229 51.5762 35.2645Z" fill="#FFD166"/>
<path fill-rule="evenodd" clip-rule="evenodd" d="M49.1069 40.3259V42.252H49.3226C55.0644 42.252 59.7189 40.8171 59.7189 39.0455V37.3975C57.8459 38.4524 54.4997 39.0671 50.9922 39.2154C50.4521 39.6896 49.8102 40.0664 49.1069 40.3259H49.1069Z" fill="#E0C390"/>
<path opacity="0.2" d="M32.3253 58C50.1781 58 64.6507 45.0163 64.6507 29C64.6507 12.9837 50.1781 0 32.3253 0C14.4725 0 0 12.9837 0 29C0 45.0163 14.4725 58 32.3253 58Z" fill="#F2C869"/>
</svg>
