<svg width="63" height="56" viewBox="0 0 63 56" fill="none" xmlns="http://www.w3.org/2000/svg">
<path opacity="0.2" d="M35 56C50.464 56 63 43.464 63 28C63 12.536 50.464 0 35 0C19.536 0 7 12.536 7 28C7 43.464 19.536 56 35 56Z" fill="#F7931A"/>
<path fill-rule="evenodd" clip-rule="evenodd" d="M23.1389 16.5577L28.7096 14H41.5056L47.0069 16.5591L52.5 23.8831L35.001 43.75L17.5 23.8809L23.1389 16.5577ZM41.3814 14.5721L46.2348 16.8298L41.0282 19.2203H29.0399L23.6495 16.9517L28.8322 14.5721H41.3814ZM46.658 17.2639L46.523 16.9638L46.6412 17.0188L51.7676 23.854L51.7338 23.8923L51.6308 23.6842L43.7181 27.6805L41.3131 19.7179L46.658 17.2639ZM23.2162 17.3891L18.3633 23.6915L26.2615 27.6805L28.6759 19.6869L23.2162 17.3891ZM26.7412 28.0531L29.2362 19.7924H40.7435L43.2385 28.0531L34.9898 42.634L26.7412 28.0531ZM51.1317 24.5759L43.7484 28.3049L36.3894 41.3131L51.1317 24.5759ZM26.2313 28.3049L33.5501 41.2421L18.8882 24.5963L26.2313 28.3049ZM38.2016 28.0227C38.9038 27.6606 39.3428 27.0226 39.2402 25.9596C39.1023 24.507 37.864 24.02 36.3006 23.8813L36.3005 21.8663L35.0894 21.8664L35.0895 23.8283C34.7711 23.8283 34.4456 23.8347 34.1223 23.8412L34.1224 21.8663L32.9119 21.8663L32.9115 23.8807C32.6493 23.8861 32.3918 23.8911 32.1407 23.8912L32.1405 23.885L30.47 23.8844L30.4703 25.1944C30.4703 25.1944 31.3647 25.1771 31.3499 25.1938C31.8404 25.1939 32.0001 25.4824 32.0466 25.7312L32.0467 28.0268C32.0805 28.0269 32.1247 28.0284 32.1747 28.0353L32.1337 28.0353C32.1056 28.0352 32.0764 28.0352 32.0467 28.0355L32.0464 31.2512C32.0249 31.4076 31.9342 31.6569 31.5914 31.6575C31.6069 31.6714 30.711 31.6573 30.711 31.6573L30.4703 33.122L32.0465 33.122C32.2225 33.1222 32.3968 33.1241 32.5693 33.126L32.5696 33.126C32.6845 33.1272 32.7985 33.1285 32.9117 33.1292L32.9122 35.1671L34.1221 35.1673L34.122 33.1509C34.4542 33.1579 34.7757 33.1605 35.0896 33.1603L35.089 35.1674L36.3002 35.1672L36.3006 33.1329C38.3368 33.0146 39.7619 32.4951 39.9389 30.5587C40.0817 28.9995 39.3575 28.3038 38.2016 28.0227ZM37.5457 30.3172C37.5458 28.8884 35.4633 28.9382 34.4471 28.9625C34.3336 28.9652 34.2333 28.9676 34.1508 28.9676L34.1505 31.6678C34.2182 31.6677 34.298 31.6688 34.3872 31.6701C35.3789 31.684 37.5463 31.7145 37.5457 30.3172ZM34.3994 25.2779C35.2469 25.2552 36.9823 25.2086 36.9824 26.5077C36.9821 27.7779 35.1774 27.7478 34.35 27.734C34.2748 27.7328 34.2077 27.7316 34.1508 27.7316L34.1508 25.2827C34.22 25.2827 34.3041 25.2805 34.3994 25.2779Z" fill="#F7931A"/>
<path opacity="0.2" d="M28 56C43.464 56 56 43.464 56 28C56 12.536 43.464 0 28 0C12.536 0 0 12.536 0 28C0 43.464 12.536 56 28 56Z" fill="#F7931A"/>
</svg>
