<svg width="63" height="13" viewBox="0 0 63 13" fill="none" xmlns="http://www.w3.org/2000/svg">
<path fill-rule="evenodd" clip-rule="evenodd" d="M1.58454 0.776708H10.2323C18.7206 0.776708 22.5709 6.251 17.5347 10.3704C17.0137 10.7964 16.9085 11.0001 17.5226 11.0001H26.7105C28.7709 11.0001 28.9233 9.53458 27.5574 8.73694C25.5588 7.57067 23.3897 6.96213 21.6928 5.66108C18.8242 3.4613 20.7896 0.731445 25.8988 0.731445H39.2589C39.9599 0.731445 40.2592 1.02465 40.2592 1.52958V3.3411C40.2592 3.83246 40.4478 3.83749 41.0286 3.83749H49.3384C49.8081 3.83749 50.0983 4.13572 50.3528 4.50184L54.6256 10.6556C54.9163 11.074 54.9641 11.1117 55.3398 10.6088L59.9948 4.37611C60.2634 4.01653 60.6013 3.86313 61.0077 3.86313H62.3158L56.2631 11.9551C56.0459 12.2458 55.7245 12.271 55.3322 12.271H38.6735C35.5035 12.271 35.1425 11.156 35.1425 9.03115V2.79895C35.1425 2.24524 34.9493 2.06821 34.4112 2.06821H27.9864C26.028 2.06821 24.8748 3.29483 26.8327 4.41484C29.0098 5.66057 31.2524 5.83207 33.0417 7.82314C35.3723 10.4167 32.6676 12.278 28.0171 12.278H1.78822C0.531926 12.278 0.681294 11.5523 0.681294 10.7366V1.75891C0.681294 0.997491 1.10677 0.776708 1.58454 0.776708ZM5.58528 2.56107V10.3156C5.58528 10.8583 5.73917 10.9925 6.4161 10.9925H8.55503C11.9447 10.9925 15.3907 9.00751 14.6067 5.62286C13.9996 3.00264 11.1858 2.02244 8.67774 2.02244H5.9846C5.66273 2.02244 5.58528 2.2734 5.58528 2.56107ZM40.6967 5.1144H44.8906C45.2899 5.1144 45.5328 5.29545 45.7988 5.64599L49.9193 11.0745H41.4677C40.6776 11.0745 40.2124 10.735 40.2124 10.123V5.52629C40.2124 5.25371 40.4181 5.1144 40.6967 5.1144Z" fill="#264CA6"/>
</svg>
