<svg width="85" height="85" viewBox="0 0 85 85" fill="none" xmlns="http://www.w3.org/2000/svg">
<g clip-path="url(#clip0_743_4082)">
<path d="M72.9141 52.7266L82.6094 62.8203L39.9766 84.2031C39.9766 84.2031 34.3984 86.9922 31.7422 82.6094C21.1172 65.3438 72.9141 52.7266 72.9141 52.7266Z" fill="#256382"/>
<path d="M38.7812 71.5859C38.7812 71.5859 30.6797 74.6406 32.1406 80.3516C33.7344 86.3281 40.2422 82.7422 40.2422 82.7422L80.75 62.8203C80.75 62.8203 78.4922 56.4453 82.6094 52.1953L38.7812 71.5859Z" fill="#D9E3E8"/>
<path d="M45.6875 11.8203L84.4688 51.7969L38.6484 70.7891L9.29688 22.1797L45.6875 11.8203Z" fill="#42ADE2"/>
<path d="M80.6172 56.5781L53.5234 68.2656L80.0859 55.3828L80.6172 56.5781ZM80.2187 60.0312L51.3984 72.6484L79.6875 58.8359L80.2187 60.0312ZM80.4844 62.0234L43.6953 78.8906L79.9531 60.8281L80.4844 62.0234Z" fill="#94989B"/>
<path d="M31.6094 82.4767C27.0937 72.5158 38.6484 70.7892 38.6484 70.7892L9.29688 22.1799C9.29688 22.1799 2.65625 22.047 2.65625 29.3517C2.65625 32.4064 3.98438 34.6642 3.98438 34.6642L31.6094 82.4767Z" fill="#428BC1"/>
<path d="M11.5547 42.7656L1.85938 52.8594L44.4922 74.2422C44.4922 74.2422 50.0703 77.0313 52.7266 72.6484C63.3516 55.3828 11.5547 42.7656 11.5547 42.7656Z" fill="#547725"/>
<path d="M45.5547 61.625C45.5547 61.625 53.6562 64.6797 52.1953 70.3906C50.6016 76.3672 44.2266 72.7812 44.2266 72.7812L3.71875 52.8594C3.71875 52.8594 5.97656 46.4844 1.85938 42.2344L45.5547 61.625Z" fill="#D9E3E8"/>
<path d="M38.7812 1.85938L0 41.8359L45.8203 60.8281L75.1719 12.2188L38.7812 1.85938Z" fill="#83BF4F"/>
<path d="M4.25 45.4219L30.8125 58.3047L3.71875 46.6172L4.25 45.4219ZM4.78125 48.875L32.9375 62.6875L4.11719 50.0703L4.78125 48.875ZM4.51563 50.8672L40.6406 68.9297L3.85156 52.0625L4.51563 50.8672Z" fill="#94989B"/>
<path d="M52.8594 72.5158C57.375 62.5549 45.8203 60.8283 45.8203 60.8283L75.1719 12.2189C75.1719 12.2189 81.8125 12.0861 81.8125 19.3908C81.8125 22.4455 80.4844 24.7033 80.4844 24.7033L52.8594 72.5158Z" fill="#699635"/>
<path d="M75.3047 34.5312L83.4063 43.0313L47.4141 60.9609C47.4141 60.9609 42.6328 63.2188 40.375 59.6328C31.6094 45.1563 75.3047 34.5312 75.3047 34.5312Z" fill="#962C2C"/>
<path d="M46.4844 50.4687C46.4844 50.4687 39.5782 52.9922 40.9063 57.9062C42.2344 62.9531 47.6797 59.8984 47.6797 59.8984L81.8125 43.0313C81.8125 43.0313 79.9532 37.7188 83.4063 34.1328L46.4844 50.4687Z" fill="#D9E3E8"/>
<path d="M52.3281 0L85 33.7344L46.3516 49.8047L21.5156 8.76562L52.3281 0Z" fill="#ED4C5C"/>
<path d="M53.2578 7.70312L59.6328 14.7422L36.125 23.6406L30.5469 14.6094L53.2578 7.70312Z" fill="white"/>
<path d="M81.8125 37.8516L58.9688 47.5469L81.2813 36.6562L81.8125 37.8516ZM81.5469 40.7734L57.1094 51.2656L81.0156 39.5781L81.5469 40.7734ZM81.8125 42.3672L50.7344 56.5781L81.1484 41.1719L81.8125 42.3672Z" fill="#94989B"/>
<path d="M40.5078 59.633C36.7891 51.2659 46.4844 49.8049 46.4844 49.8049L21.5156 8.76586C21.5156 8.76586 15.8047 8.63304 15.8047 14.7424C15.8047 17.2659 16.8672 19.258 16.8672 19.258L40.5078 59.633Z" fill="#C94747"/>
</g>
<defs>
<clipPath id="clip0_743_4082">
<rect width="85" height="85" fill="white"/>
</clipPath>
</defs>
</svg>
