<svg width="209" height="192" viewBox="0 0 209 192" fill="none" xmlns="http://www.w3.org/2000/svg">
<path d="M174.691 72.8436L174.673 145.162C174.673 146.227 174.473 147.253 174.115 148.199C172.812 151.646 169.334 154.108 165.269 154.108L33.2532 154.082C29.1681 154.082 25.6873 151.586 24.4026 148.119C24.0507 147.183 23.8661 146.18 23.8607 145.132L23.8781 72.8441C23.8789 70.7511 24.6328 69.489 25.894 67.9665C27.3876 66.163 79.5303 67.3664 93.7442 66.7931C95.8993 66.706 98.3808 66.7046 100.545 66.7906C114.802 67.3554 170.928 65.387 172.426 67.0474C173.831 68.6047 174.683 70.628 174.691 72.8436ZM174.691 72.8436L174.673 145.162C174.673 146.227 174.473 147.253 174.115 148.199C172.812 151.646 169.334 154.108 165.269 154.108L33.2532 154.082C29.1681 154.082 25.6873 151.586 24.4026 148.119C24.0507 147.183 23.8661 146.18 23.8607 145.132L23.8781 72.8441C23.8789 70.7511 24.6328 69.489 25.894 67.9665C27.3876 66.163 79.5303 67.3664 93.7442 66.7931C95.8993 66.706 98.3808 66.7046 100.545 66.7906C114.802 67.3554 170.928 65.387 172.426 67.0474C173.831 68.6047 174.683 70.628 174.691 72.8436Z" fill="black" fill-opacity="0.2"/>
<path d="M177.181 70.9187L177.163 143.237C177.163 144.302 176.962 145.328 176.604 146.274C175.301 149.721 171.824 152.184 167.758 152.183L35.7428 152.157C31.6577 152.157 28.1769 149.662 26.8922 146.194C26.5403 145.258 26.3557 144.255 26.3503 143.207L26.3677 70.9193C26.3685 68.8262 27.1224 67.5642 28.3836 66.0417C29.8772 64.2381 83.9636 26.7311 98.1779 16.8869C100.332 15.3943 102.815 15.384 104.979 16.8561C119.236 26.5555 173.418 63.4621 174.916 65.1225C176.321 66.6799 177.172 68.7032 177.181 70.9187ZM177.181 70.9187L177.163 143.237C177.163 144.302 176.962 145.328 176.604 146.274C175.301 149.721 171.824 152.184 167.758 152.183L35.7428 152.157C31.6577 152.157 28.1769 149.662 26.8922 146.194C26.5403 145.258 26.3557 144.255 26.3503 143.207L26.3677 70.9193C26.3685 68.8262 27.1224 67.5642 28.3836 66.0417C29.8772 64.2381 83.9636 26.7311 98.1779 16.8869C100.332 15.3943 102.815 15.384 104.979 16.8561C119.236 26.5555 173.418 63.4621 174.916 65.1225C176.321 66.6799 177.172 68.7032 177.181 70.9187Z" fill="#4612A3"/>
<path d="M170.571 44.3466L170.619 117.86C170.622 121.259 167.726 124.016 164.154 124.018L40.1228 124.18C36.5501 124.182 33.6515 121.428 33.6491 118.028L33.6001 44.5157C33.5978 41.1167 36.4935 38.3593 40.0662 38.357L164.098 38.1959C167.671 38.1936 170.568 40.9476 170.571 44.3466ZM170.571 44.3466L170.619 117.86C170.622 121.259 167.726 124.016 164.154 124.018L40.1228 124.18C36.5501 124.182 33.6515 121.428 33.6491 118.028L33.6001 44.5157C33.5978 41.1167 36.4935 38.3593 40.0662 38.357L164.098 38.1959C167.671 38.1936 170.568 40.9476 170.571 44.3466Z" fill="#ECF2FB"/>
<path d="M53.1246 49.8876L97.4019 49.9511M53.1253 63.7322L147.69 63.7228L53.1253 63.7322ZM53.1253 63.7322L147.69 63.7228L53.1253 63.7322ZM53.1246 49.8876L97.4019 49.9511L53.1246 49.8876ZM53.1246 49.8876L97.4019 49.9511L53.1246 49.8876ZM53.9977 105.434L148.555 105.42L53.9977 105.434ZM53.9901 91.59L98.2741 91.6536L53.9901 91.59ZM53.7083 91.534L148.266 91.5206L53.7083 91.534ZM53.7006 77.6902L97.9847 77.7537L53.7006 77.6902ZM53.4188 77.6342L147.976 77.6208L53.4188 77.6342ZM53.4112 63.7903L97.6953 63.8539L53.4112 63.7903ZM53.1253 63.7322L147.69 63.7228L53.1253 63.7322Z" stroke="#BFCEE2" stroke-width="13.1393" stroke-linecap="round" stroke-linejoin="round"/>
<path d="M177.181 71.5804L177.164 143.237C177.164 144.303 176.963 145.329 176.605 146.275C175.303 149.722 171.825 152.184 167.759 152.184L35.7441 152.157C31.6591 152.158 28.1782 149.662 26.8935 146.194C26.5417 145.259 26.3571 144.255 26.3516 143.208L26.3693 71.5812C26.3722 66.6348 30.5854 65.0246 35.7639 68.053L101.017 107.187L167.779 68.0796C172.699 65.2892 177.162 66.6438 177.181 71.5804ZM177.181 71.5804L177.164 143.237C177.164 144.303 176.963 145.329 176.605 146.275C175.303 149.722 171.825 152.184 167.759 152.184L35.7441 152.157C31.6591 152.158 28.1782 149.662 26.8935 146.194C26.5417 145.259 26.3571 144.255 26.3516 143.208L26.3693 71.5812C26.3722 66.6348 30.5854 65.0246 35.7639 68.053L101.017 107.187L167.779 68.0796C172.699 65.2892 177.162 66.6438 177.181 71.5804ZM176.606 146.12C175.303 149.657 171.825 152.184 167.759 152.184L35.7444 152.157C31.6593 152.157 28.1777 149.596 26.8935 146.038L96.1201 101.896C96.1201 101.896 99.318 99.9161 101.939 99.9448C104.559 99.9736 107.344 102.026 107.344 102.026L176.606 146.12ZM176.606 146.12C175.303 149.657 171.825 152.184 167.759 152.184L35.7444 152.157C31.6593 152.157 28.1777 149.596 26.8935 146.038L96.1201 101.896C96.1201 101.896 99.318 99.9161 101.939 99.9448C104.559 99.9736 107.344 102.026 107.344 102.026L176.606 146.12ZM176.605 146.275C175.303 149.722 171.825 152.184 167.759 152.184L35.7441 152.157C31.6591 152.158 28.1782 149.662 26.8935 146.194L96.1199 103.177C96.1199 103.177 99.3177 101.248 101.939 101.276C104.559 101.303 107.345 103.303 107.345 103.303L176.605 146.275ZM176.605 146.275C175.303 149.722 171.825 152.184 167.759 152.184L35.7441 152.157C31.6591 152.158 28.1782 149.662 26.8935 146.194L96.1199 103.177C96.1199 103.177 99.3177 101.248 101.939 101.276C104.559 101.303 107.345 103.303 107.345 103.303L176.605 146.275ZM31.354 64.9743C31.3524 64.9757 31.3468 64.9814 31.3428 64.9848C31.3428 64.9848 31.342 64.9873 31.3426 64.9884C31.3429 64.9904 31.3425 64.9911 31.3427 64.9912L31.366 64.9907C31.3662 64.9908 31.3669 64.991 31.3669 64.9882C31.3671 64.9874 31.3668 64.9854 31.3668 64.9854C31.3632 64.9816 31.3566 64.9751 31.3549 64.9746L31.354 64.9743ZM31.354 64.9743C31.3524 64.9757 31.3468 64.9814 31.3428 64.9848C31.3428 64.9848 31.342 64.9873 31.3426 64.9884C31.3429 64.9904 31.3425 64.9911 31.3427 64.9912L31.366 64.9907C31.3662 64.9908 31.3669 64.991 31.3669 64.9882C31.3671 64.9874 31.3668 64.9854 31.3668 64.9854C31.3632 64.9816 31.3566 64.9751 31.3549 64.9746L31.354 64.9743Z" fill="#4612A3"/>
<path d="M176.605 146.121C175.303 149.658 171.825 152.185 167.759 152.184L35.7442 152.157C31.6591 152.158 28.1775 149.596 26.8932 146.038L96.1198 101.897C96.1198 101.897 99.3177 99.9165 101.938 99.9453C104.559 99.974 107.344 102.026 107.344 102.026L176.605 146.121ZM176.605 146.121C175.303 149.658 171.825 152.185 167.759 152.184L35.7442 152.157C31.6591 152.158 28.1775 149.596 26.8932 146.038L96.1198 101.897C96.1198 101.897 99.3177 99.9165 101.938 99.9453C104.559 99.974 107.344 102.026 107.344 102.026L176.605 146.121ZM176.605 146.275C175.303 149.722 171.825 152.185 167.759 152.184L35.7439 152.158C31.6588 152.158 28.178 149.663 26.8933 146.195L96.1196 103.178C96.1196 103.178 99.3174 101.248 101.938 101.276C104.559 101.304 107.345 103.304 107.345 103.304L176.605 146.275ZM176.605 146.275C175.303 149.722 171.825 152.185 167.759 152.184L35.7439 152.158C31.6588 152.158 28.178 149.663 26.8933 146.195L96.1196 103.178C96.1196 103.178 99.3174 101.248 101.938 101.276C104.559 101.304 107.345 103.304 107.345 103.304L176.605 146.275ZM31.3537 64.9747C31.3522 64.9761 31.3466 64.9818 31.3426 64.9852C31.3426 64.9852 31.3417 64.9878 31.3423 64.9889C31.3427 64.9908 31.3422 64.9916 31.3424 64.9916L31.3658 64.9912C31.3659 64.9912 31.3667 64.9915 31.3666 64.9887C31.3669 64.9879 31.3665 64.9859 31.3665 64.9859C31.363 64.9821 31.3564 64.9755 31.3546 64.975L31.3537 64.9747ZM31.3537 64.9747C31.3522 64.9761 31.3466 64.9818 31.3426 64.9852C31.3426 64.9852 31.3417 64.9878 31.3423 64.9889C31.3427 64.9908 31.3422 64.9916 31.3424 64.9916L31.3658 64.9912C31.3659 64.9912 31.3667 64.9915 31.3666 64.9887C31.3669 64.9879 31.3665 64.9859 31.3665 64.9859C31.363 64.9821 31.3564 64.9755 31.3546 64.975L31.3537 64.9747Z" fill="#202020" fill-opacity="0.3"/>
<path d="M176.605 146.275C175.303 149.722 171.825 152.185 167.759 152.184L35.7439 152.158C31.6588 152.158 28.178 149.663 26.8933 146.195L96.1196 103.178C96.1196 103.178 99.3174 101.248 101.938 101.276C104.559 101.304 107.345 103.304 107.345 103.304L176.605 146.275ZM176.605 146.275C175.303 149.722 171.825 152.185 167.759 152.184L35.7439 152.158C31.6588 152.158 28.178 149.663 26.8933 146.195L96.1196 103.178C96.1196 103.178 99.3174 101.248 101.938 101.276C104.559 101.304 107.345 103.304 107.345 103.304L176.605 146.275ZM31.3537 64.9747C31.3522 64.9761 31.3466 64.9818 31.3426 64.9852C31.3426 64.9852 31.3417 64.9878 31.3423 64.9889C31.3427 64.9908 31.3422 64.9916 31.3424 64.9916L31.3658 64.9912C31.3659 64.9912 31.3667 64.9915 31.3666 64.9887C31.3669 64.9879 31.3665 64.9859 31.3665 64.9859C31.363 64.9821 31.3564 64.9755 31.3546 64.975L31.3537 64.9747ZM31.3537 64.9747C31.3522 64.9761 31.3466 64.9818 31.3426 64.9852C31.3426 64.9852 31.3417 64.9878 31.3423 64.9889C31.3427 64.9908 31.3422 64.9916 31.3424 64.9916L31.3658 64.9912C31.3659 64.9912 31.3667 64.9915 31.3666 64.9887C31.3669 64.9879 31.3665 64.9859 31.3665 64.9859C31.363 64.9821 31.3564 64.9755 31.3546 64.975L31.3537 64.9747Z" fill="#4612A3"/>
<path d="M50.3572 80.2803C56.7643 81.424 60.9903 87.3019 59.7882 93.3975C58.5861 99.4932 52.4079 103.514 46.0008 102.37C39.5937 101.226 35.3677 95.3486 36.5699 89.2529C37.772 83.1572 43.9501 79.1366 50.3572 80.2803Z" fill="black" fill-opacity="0.18"/>
<path d="M51.4676 78.4971C57.8747 79.6408 62.1007 85.5187 60.8985 91.6143C59.6964 97.71 53.5183 101.731 47.1112 100.587C40.7041 99.4432 36.4781 93.5654 37.6802 87.4697C38.8824 81.374 45.0605 77.3534 51.4676 78.4971ZM51.3924 96.1035C50.3206 96.4165 48.9534 96.4368 47.7096 96.2148C44.0757 95.5661 41.9007 92.8959 42.6649 89.0208C43.5389 84.5889 47.3562 82.388 51.0878 83.0541C54.8681 83.7289 56.4544 86.438 55.8595 89.4546C55.3332 92.123 53.7618 93.1764 52.7205 92.9536C52.0422 92.8086 51.9951 92.1516 52.509 90.8262L54.0872 86.6641C53.5414 86.2305 52.3724 85.7574 51.2993 85.5659C47.7872 84.939 45.0842 87.1228 44.5259 89.9536C44.1506 91.8563 45.0774 93.1746 46.6628 93.4576C47.9554 93.6884 49.1717 93.2811 50.1613 92.2326L50.2099 92.2413C50.0894 93.4929 50.8088 94.1977 51.9552 94.4023C54.5891 94.8725 57.01 93.0948 57.6781 89.7071C58.4469 85.8089 55.9276 82.4527 51.6352 81.6865C46.1232 80.7025 41.7037 84.1653 40.7701 88.8988C39.8732 93.4468 42.8896 96.8437 46.9379 97.5663C48.6696 97.8754 49.9791 97.8929 51.5659 97.5277L51.3924 96.1035ZM50.5089 89.7004C50.024 91.0071 48.8579 91.9279 47.9555 91.7668C47.1509 91.6232 46.8459 90.9923 47.0198 90.1105C47.3722 88.3239 48.9379 87.042 50.5476 87.3293C50.8644 87.3859 51.0992 87.4757 51.2851 87.557L50.5089 89.7004Z" fill="#E1EAF5"/>
<path d="M51.3925 96.1039C50.3207 96.4169 48.9534 96.4372 47.7096 96.2151C44.0757 95.5665 41.9007 92.8962 42.6649 89.0212C43.539 84.5893 47.3563 82.3884 51.0879 83.0545C54.8682 83.7293 56.4544 86.4384 55.8595 89.4549C55.3333 92.1234 53.7618 93.1768 52.7205 92.954C52.0423 92.809 51.9951 92.152 52.509 90.8265L54.0872 86.6645C53.5415 86.2309 52.3724 85.7578 51.2994 85.5663C47.7873 84.9394 45.0842 87.1232 44.5259 89.954C44.1507 91.8567 45.0775 93.175 46.6628 93.458C47.9554 93.6887 49.1717 93.2815 50.1613 92.233L50.21 92.2417C50.0895 93.4932 50.8088 94.1981 51.9552 94.4027C54.5891 94.8729 57.01 93.0952 57.6781 89.7075C58.4469 85.8093 55.9276 82.4531 51.6352 81.6869C46.1233 80.7029 41.7037 84.1657 40.7702 88.8992C39.8733 93.4472 42.8897 96.844 46.938 97.5667C48.6697 97.8758 49.9791 97.8933 51.566 97.5281L51.3925 96.1039ZM50.509 89.7008C50.024 91.0075 48.8579 91.9283 47.9556 91.7672C47.1509 91.6236 46.846 90.9927 47.0199 90.1109C47.3722 88.3243 48.9379 87.0424 50.5476 87.3297C50.8645 87.3863 51.0992 87.4761 51.2851 87.5574L50.509 89.7008Z" fill="#4612A3"/>
<path d="M173.686 113.536V133.261C173.686 134.457 172.665 135.428 171.408 135.428H115.02C113.763 135.428 112.742 134.457 112.742 133.261V113.536C112.742 112.34 113.763 111.369 115.02 111.369H171.408C172.665 111.369 173.686 112.34 173.686 113.536ZM173.686 113.536V133.261C173.686 134.457 172.665 135.428 171.408 135.428H115.02C113.763 135.428 112.742 134.457 112.742 133.261V113.536C112.742 112.34 113.763 111.369 115.02 111.369H171.408C172.665 111.369 173.686 112.34 173.686 113.536ZM175.053 112.236V131.96C175.053 133.157 174.032 134.128 172.774 134.128H116.387C115.13 134.128 114.109 133.157 114.109 131.96V112.236C114.109 111.04 115.13 110.068 116.387 110.068H172.774C174.032 110.068 175.053 111.04 175.053 112.236ZM175.053 112.236V131.96C175.053 133.157 174.032 134.128 172.774 134.128H116.387C115.13 134.128 114.109 133.157 114.109 131.96V112.236C114.109 111.04 115.13 110.068 116.387 110.068H172.774C174.032 110.068 175.053 111.04 175.053 112.236ZM127.722 111.965C133.6 111.965 138.373 116.506 138.373 122.098C138.373 127.691 133.6 132.231 127.722 132.231C121.844 132.231 117.071 127.691 117.071 122.098C117.071 116.506 121.844 111.965 127.722 111.965ZM127.722 111.965C133.6 111.965 138.373 116.506 138.373 122.098C138.373 127.691 133.6 132.231 127.722 132.231C121.844 132.231 117.071 127.691 117.071 122.098C117.071 116.506 121.844 111.965 127.722 111.965ZM127.722 115.162C130.144 115.162 132.107 117.03 132.107 119.335C132.107 121.235 130.773 123.685 128.946 124.487C128.757 124.57 134.329 125.051 134.571 128.007C133.474 129.441 130.769 130.822 127.722 130.822C124.447 130.822 121.713 129.061 120.659 127.939C120.802 124.97 126.533 124.513 126.294 124.39C124.573 123.502 123.336 121.163 123.336 119.335C123.336 117.03 125.3 115.162 127.722 115.162ZM127.722 115.162C130.144 115.162 132.107 117.03 132.107 119.335C132.107 121.235 130.773 123.685 128.946 124.487C128.757 124.57 134.329 125.051 134.571 128.007C133.474 129.441 130.769 130.822 127.722 130.822C124.447 130.822 121.713 129.061 120.659 127.939C120.802 124.97 126.533 124.513 126.294 124.39C124.573 123.502 123.336 121.163 123.336 119.335C123.336 117.03 125.3 115.162 127.722 115.162Z" fill="black" fill-opacity="0.17"/>
<path d="M175.052 112.236V131.96C175.052 133.157 174.031 134.128 172.774 134.128H116.387C115.129 134.128 114.108 133.157 114.108 131.96V112.236C114.108 111.04 115.129 110.068 116.387 110.068H172.774C174.031 110.068 175.052 111.04 175.052 112.236ZM175.052 112.236V131.96C175.052 133.157 174.031 134.128 172.774 134.128H116.387C115.129 134.128 114.108 133.157 114.108 131.96V112.236C114.108 111.04 115.129 110.068 116.387 110.068H172.774C174.031 110.068 175.052 111.04 175.052 112.236ZM127.721 111.965C133.599 111.965 138.372 116.506 138.372 122.098C138.372 127.691 133.599 132.231 127.721 132.231C121.843 132.231 117.07 127.691 117.07 122.098C117.07 116.506 121.843 111.965 127.721 111.965ZM127.721 111.965C133.599 111.965 138.372 116.506 138.372 122.098C138.372 127.691 133.599 132.231 127.721 132.231C121.843 132.231 117.07 127.691 117.07 122.098C117.07 116.506 121.843 111.965 127.721 111.965ZM127.721 115.162C130.143 115.162 132.107 117.03 132.107 119.335C132.107 121.235 130.772 123.685 128.946 124.487C128.756 124.57 134.328 125.051 134.571 128.007C133.474 129.441 130.768 130.822 127.721 130.822C124.446 130.822 121.712 129.061 120.658 127.939C120.801 124.97 126.532 124.513 126.293 124.39C124.572 123.502 123.335 121.163 123.335 119.335C123.335 117.03 125.299 115.162 127.721 115.162ZM127.721 115.162C130.143 115.162 132.107 117.03 132.107 119.335C132.107 121.235 130.772 123.685 128.946 124.487C128.756 124.57 134.328 125.051 134.571 128.007C133.474 129.441 130.768 130.822 127.721 130.822C124.446 130.822 121.712 129.061 120.658 127.939C120.801 124.97 126.532 124.513 126.293 124.39C124.572 123.502 123.335 121.163 123.335 119.335C123.335 117.03 125.299 115.162 127.721 115.162Z" fill="white"/>
<path d="M127.722 111.965C133.6 111.965 138.373 116.506 138.373 122.098C138.373 127.691 133.6 132.231 127.722 132.231C121.844 132.231 117.071 127.691 117.071 122.098C117.071 116.506 121.844 111.965 127.722 111.965ZM127.722 111.965C133.6 111.965 138.373 116.506 138.373 122.098C138.373 127.691 133.6 132.231 127.722 132.231C121.844 132.231 117.071 127.691 117.071 122.098C117.071 116.506 121.844 111.965 127.722 111.965ZM127.722 115.162C130.144 115.162 132.108 117.03 132.108 119.334C132.108 121.234 130.773 123.685 128.947 124.487C128.757 124.57 134.329 125.051 134.572 128.007C133.475 129.441 130.769 130.822 127.722 130.822C124.447 130.822 121.713 129.061 120.659 127.939C120.802 124.97 126.534 124.513 126.294 124.39C124.573 123.502 123.337 121.163 123.337 119.334C123.337 117.03 125.3 115.162 127.722 115.162ZM127.722 115.162C130.144 115.162 132.108 117.03 132.108 119.334C132.108 121.234 130.773 123.685 128.947 124.487C128.757 124.57 134.329 125.051 134.572 128.007C133.475 129.441 130.769 130.822 127.722 130.822C124.447 130.822 121.713 129.061 120.659 127.939C120.802 124.97 126.534 124.513 126.294 124.39C124.573 123.502 123.337 121.163 123.337 119.334C123.337 117.03 125.3 115.162 127.722 115.162Z" fill="#DFE5F3"/>
<path d="M127.722 115.162C130.144 115.162 132.108 117.03 132.108 119.335C132.108 121.235 130.773 123.685 128.947 124.487C128.758 124.57 134.329 125.051 134.572 128.007C133.475 129.441 130.769 130.823 127.722 130.823C124.447 130.823 121.713 129.061 120.659 127.939C120.802 124.97 126.534 124.513 126.294 124.39C124.573 123.502 123.337 121.163 123.337 119.335C123.337 117.03 125.3 115.162 127.722 115.162ZM127.722 115.162C130.144 115.162 132.108 117.03 132.108 119.335C132.108 121.235 130.773 123.685 128.947 124.487C128.758 124.57 134.329 125.051 134.572 128.007C133.475 129.441 130.769 130.823 127.722 130.823C124.447 130.823 121.713 129.061 120.659 127.939C120.802 124.97 126.534 124.513 126.294 124.39C124.573 123.502 123.337 121.163 123.337 119.335C123.337 117.03 125.3 115.162 127.722 115.162Z" fill="white"/>
<path d="M142.815 119.714H170.269M142.815 119.714H170.269H142.815ZM142.815 119.714H170.269H142.815ZM142.815 128.817H170.269H142.815ZM142.815 124.266H170.269H142.815Z" stroke="#DEE4F3" stroke-width="6.478" stroke-linecap="round" stroke-linejoin="round"/>
<path d="M142.815 115.054H156.029M142.815 115.054H156.029H142.815Z" stroke="#4612A3" stroke-width="6.478" stroke-linecap="round" stroke-linejoin="round"/>
</svg>
