<svg width="46" height="46" viewBox="0 0 46 46" fill="none" xmlns="http://www.w3.org/2000/svg">
<path d="M23.1142 41.0653C33.3217 41.0653 41.5965 32.7905 41.5965 22.5829C41.5965 12.3754 33.3217 4.10059 23.1142 4.10059C12.9067 4.10059 4.63184 12.3754 4.63184 22.5829C4.63184 32.7905 12.9067 41.0653 23.1142 41.0653Z" fill="#50B651"/>
<path opacity="0.663" fill-rule="evenodd" clip-rule="evenodd" d="M41.5402 22.5317C41.5402 32.7713 33.2395 41.072 23.0022 41.072C12.7649 41.072 4.46191 32.7713 4.46191 22.5317C4.46191 18.002 4.58887 17.3286 6.37183 14.7498C6.37183 14.7498 6.27983 17.6626 8.41561 19.3958C9.74363 20.4727 11.1296 19.6953 13.6665 18.5269C16.4109 17.2619 18.6419 16.4459 20.3825 16.6611C23.0045 16.9859 31.0863 21.8394 35.304 20.8729C38.6735 20.1024 38.3179 12.1582 38.3179 12.1582C41.9979 15.7517 41.5402 18.1805 41.5402 22.5317Z" fill="url(#paint0_linear_228_3691)"/>
<path opacity="0.586" fill-rule="evenodd" clip-rule="evenodd" d="M30.958 36.1492C37.6633 29.842 38.7779 22.6163 34.3017 14.4722C34.3244 14.4887 34.6014 13.5332 35.1325 11.6055C37.5147 14.4903 38.7814 18.051 38.9326 22.2876C38.9313 27.7751 36.2732 32.3956 30.958 36.1492Z" fill="url(#paint1_linear_228_3691)"/>
<path opacity="0.744" fill-rule="evenodd" clip-rule="evenodd" d="M27.7779 11.6443C24.5413 9.85302 20.8282 6.24984 21.3218 5.49314C21.8154 4.73644 28.2218 4.86662 31.4588 6.65786C34.6958 8.4491 37.4507 13.8224 36.9576 14.5791C36.4645 15.3358 31.0144 13.4355 27.7779 11.6443Z" fill="url(#paint2_radial_228_3691)"/>
<path fill-rule="evenodd" clip-rule="evenodd" d="M30.5971 27.1347C27.9121 27.1347 25.7354 24.8959 25.7354 22.1345C25.7354 19.3731 27.9121 17.1348 30.5971 17.1348C33.2821 17.1348 35.4593 19.3731 35.4593 22.1345C35.4593 24.8959 33.2826 27.1347 30.5971 27.1347ZM30.6316 25.5486C32.3074 25.5486 33.6676 24.02 33.6676 22.1345C33.6676 20.249 32.3074 18.7218 30.6316 18.7218C28.9558 18.7218 27.5956 20.2503 27.5956 22.1354C27.5956 24.0205 28.9558 25.5486 30.6316 25.5486Z" fill="white"/>
<path fill-rule="evenodd" clip-rule="evenodd" d="M20.5654 13.1094H24.0688V27.0796H22.1455V14.6416H20.5654V13.1094Z" fill="white"/>
<path fill-rule="evenodd" clip-rule="evenodd" d="M17.9549 17.2775H19.7733V28.944C19.7733 30.0071 18.655 31.1143 17.5653 31.5908C17.0501 31.8159 16.0994 31.9496 14.7133 31.992V30.8314C16.0691 30.6802 16.9842 30.3786 17.4586 29.9266C17.7323 29.5461 17.9034 29.1016 17.9554 28.6358V25.2083C17.4693 26.2397 16.8572 26.9234 16.119 27.2595C15.3518 27.6735 13.7901 27.6054 13.1525 27.2595C12.5149 26.9136 11.5798 26.0028 11.151 24.6462C11.0324 24.2718 10.737 23.2529 10.7679 22.1733C10.7955 21.1452 11.1359 20.0573 11.4188 19.6101C11.9045 18.8465 12.6704 17.8902 13.8305 17.4905C14.3973 17.2951 15.4476 17.2249 16.9815 17.2798V18.4339C15.8417 18.3569 15.1305 18.3954 14.8481 18.5494C14.4244 18.7794 13.4681 19.0632 13.1525 21.1475C12.8369 23.2317 13.1617 24.9374 14.1622 25.4715C14.5049 25.6555 15.1112 25.873 15.6715 25.6812C16.7479 25.3132 17.7608 24.0008 17.8381 23.1117C17.916 22.2094 17.9549 20.2647 17.9549 17.2775Z" fill="white"/>
<path fill-rule="evenodd" clip-rule="evenodd" d="M40.9596 26.2425C39.2424 34.511 31.9155 40.7238 23.1383 40.7238C13.0859 40.7238 4.93652 32.5744 4.93652 22.5221C4.93652 16.2771 8.08154 10.7668 12.8738 7.48926C8.97992 10.7185 6.50052 15.5968 6.50052 21.0519C6.50052 30.7823 14.3886 38.6699 24.1185 38.6699C32.0425 38.6699 38.7438 33.4392 40.9596 26.2425Z" fill="url(#paint3_radial_228_3691)"/>
<path fill-rule="evenodd" clip-rule="evenodd" d="M23.1381 0.96582C11.2333 0.96582 1.58203 10.6166 1.58203 22.5214C1.58203 34.4262 11.2333 44.0775 23.1381 44.0775C35.0429 44.0775 44.6942 34.4262 44.6942 22.5214C44.6942 10.6166 35.0429 0.96582 23.1381 0.96582ZM23.1381 40.7236C13.0857 40.7236 4.93635 32.5743 4.93635 22.5219C4.93635 16.2769 8.08137 10.7666 12.8737 7.48908C15.896 5.41911 19.4749 4.31405 23.1381 4.31968C33.1905 4.31968 41.3398 12.4686 41.3398 22.5214C41.3405 23.7713 41.213 25.018 40.9594 26.2419C39.2422 34.5104 31.9154 40.7232 23.1381 40.7232V40.7236Z" fill="white"/>
<defs>
<linearGradient id="paint0_linear_228_3691" x1="22.286" y1="14.69" x2="24.6624" y2="36.1504" gradientUnits="userSpaceOnUse">
<stop stop-color="#123214"/>
<stop offset="0.46" stop-color="#3E7C37"/>
<stop offset="0.91" stop-color="#5FBB46"/>
</linearGradient>
<linearGradient id="paint1_linear_228_3691" x1="36.0145" y1="13.2943" x2="36.0145" y2="30.6479" gradientUnits="userSpaceOnUse">
<stop stop-color="white" stop-opacity="0"/>
<stop offset="0.64" stop-color="white" stop-opacity="0.43"/>
<stop offset="1" stop-color="white" stop-opacity="0.42"/>
</linearGradient>
<radialGradient id="paint2_radial_228_3691" cx="0" cy="0" r="1" gradientUnits="userSpaceOnUse" gradientTransform="translate(29.5336 10.1577) rotate(26.7606) scale(9.13298 3.80373)">
<stop offset="0.13" stop-color="white"/>
<stop offset="0.29" stop-color="white" stop-opacity="0.69"/>
<stop offset="0.45" stop-color="white" stop-opacity="0.4"/>
<stop offset="0.59" stop-color="white" stop-opacity="0.18"/>
<stop offset="0.69" stop-color="white" stop-opacity="0.05"/>
<stop offset="0.74" stop-color="white" stop-opacity="0"/>
</radialGradient>
<radialGradient id="paint3_radial_228_3691" cx="0" cy="0" r="1" gradientUnits="userSpaceOnUse" gradientTransform="translate(26.2594 18.3283) rotate(39.84) scale(20.4668 22.3088)">
<stop offset="0.86" stop-opacity="0"/>
<stop offset="0.98" stop-opacity="0.47"/>
<stop offset="1"/>
</radialGradient>
</defs>
</svg>
