<svg width="175" height="75" viewBox="0 0 175 75" fill="none" xmlns="http://www.w3.org/2000/svg">
    <rect width="175" height="74.2" rx="10" fill="white" />
    <path d="M64.2513 28.6338C64.2513 29.4665 63.939 30.1951 63.5227 30.7156C62.8982 31.3401 62.1696 31.6523 61.2328 31.6523C60.296 31.6523 59.5674 31.3401 58.9429 30.7156C58.3184 30.091 58.0061 29.3624 58.0061 28.4257C58.0061 27.4889 58.3184 26.7603 58.9429 26.1357C59.5674 25.5112 60.296 25.199 61.2328 25.199C61.6491 25.199 62.0655 25.3031 62.4818 25.5112C62.8982 25.7194 63.2104 25.9276 63.4186 26.2398L62.8982 26.7603C62.4818 26.2398 61.9614 26.0317 61.1287 26.0317C60.5042 26.0317 59.8797 26.2398 59.4633 26.7603C58.9429 27.1766 58.7347 27.8011 58.7347 28.5297C58.7347 29.2583 58.9429 29.8829 59.4633 30.2992C59.9838 30.7156 60.5042 31.0278 61.1287 31.0278C61.8573 31.0278 62.3777 30.8196 62.8982 30.2992C63.2104 29.987 63.4186 29.5706 63.4186 29.0502H61.1287V28.3216H64.1472C64.2513 28.3216 64.2513 28.5297 64.2513 28.6338Z" fill="#575A65" />
    <path d="M69.1435 26.0328H66.3332V28.0104H68.9354V28.7391H66.3332V30.7167H69.1435V31.4453H65.5005V25.3042H69.1435V26.0328Z" fill="#575A65" />
    <path d="M72.4734 31.4453H71.6407V26.0328H69.9753V25.3042H74.2429V26.0328H72.4734V31.4453Z" fill="#575A65" />
    <path d="M77.3706 31.4453V25.3042H78.2033V31.4453H77.3706Z" fill="#575A65" />
    <path d="M81.7408 31.4453H80.9081V26.0328H79.1387V25.3042H83.5103V26.0328H81.7408V31.4453Z" fill="#575A65" />
    <path d="M91.6306 30.7156C91.0061 31.3401 90.2775 31.6523 89.3407 31.6523C88.4039 31.6523 87.6753 31.3401 87.0508 30.7156C86.4263 30.091 86.114 29.3624 86.114 28.4257C86.114 27.4889 86.4263 26.7603 87.0508 26.1357C87.6753 25.5112 88.4039 25.199 89.3407 25.199C90.2775 25.199 91.0061 25.5112 91.6306 26.1357C92.2551 26.7603 92.5674 27.4889 92.5674 28.4257C92.5674 29.2583 92.2551 30.091 91.6306 30.7156ZM87.5712 30.1951C87.9876 30.6115 88.6121 30.9237 89.2366 30.9237C89.8611 30.9237 90.4857 30.7156 90.902 30.1951C91.3183 29.7788 91.6306 29.1543 91.6306 28.4257C91.6306 27.697 91.4224 27.0725 90.902 26.6562C90.4857 26.2398 89.8611 25.9276 89.2366 25.9276C88.6121 25.9276 87.9876 26.1357 87.5712 26.6562C87.1549 27.0725 86.8426 27.697 86.8426 28.4257C86.9467 29.1543 87.1549 29.6747 87.5712 30.1951Z" fill="#575A65" />
    <path d="M93.7102 31.4453V25.3042H94.647L97.6655 30.0922V28.9472V25.3042H98.4982V31.4453H97.6655L94.4388 26.4491V27.5941V31.4453H93.7102Z" fill="#575A65" />
    <path d="M86.1127 40.5001C83.6146 40.5001 81.637 42.3736 81.637 44.8717C81.637 47.3698 83.6146 49.2434 86.1127 49.2434C88.6108 49.2434 90.5884 47.3698 90.5884 44.8717C90.5884 42.3736 88.6108 40.5001 86.1127 40.5001ZM86.1127 47.578C84.7596 47.578 83.6146 46.433 83.6146 44.8717C83.6146 43.3104 84.7596 42.1655 86.1127 42.1655C87.4658 42.1655 88.6108 43.2063 88.6108 44.8717C88.6108 46.433 87.4658 47.578 86.1127 47.578ZM76.4326 40.5001C73.9345 40.5001 71.9569 42.3736 71.9569 44.8717C71.9569 47.3698 73.9345 49.2434 76.4326 49.2434C78.9307 49.2434 80.9084 47.3698 80.9084 44.8717C80.8043 42.3736 78.8266 40.5001 76.4326 40.5001ZM76.4326 47.578C75.0795 47.578 73.9345 46.433 73.9345 44.8717C73.9345 43.3104 75.0795 42.1655 76.4326 42.1655C77.7858 42.1655 78.9307 43.2063 78.9307 44.8717C78.9307 46.433 77.7858 47.578 76.4326 47.578ZM64.879 41.8532V43.7268H69.3547C69.2506 44.7676 68.8343 45.4962 68.3139 46.0167C67.6893 46.6412 66.6485 47.3698 64.879 47.3698C62.0687 47.3698 59.9869 45.184 59.9869 42.3736C59.9869 39.5633 62.1727 37.3775 64.879 37.3775C66.3362 37.3775 67.4812 38.002 68.3139 38.7306L69.667 37.3775C68.522 36.3366 67.0648 35.5039 64.9831 35.5039C61.1319 35.5039 58.0093 38.5224 58.0093 42.2695C58.0093 46.0167 61.236 49.0352 64.9831 49.0352C67.0648 49.0352 68.6261 48.4107 69.7711 47.1616C71.0201 45.9126 71.4365 44.2472 71.4365 42.79C71.4365 42.3736 71.4365 41.9573 71.3324 41.645C71.1242 41.8532 64.879 41.8532 64.879 41.8532ZM112.134 43.3104C111.718 42.3736 110.677 40.5001 108.283 40.5001C105.993 40.5001 104.12 42.2695 104.12 44.8717C104.12 47.3698 105.993 49.2434 108.491 49.2434C110.573 49.2434 111.718 47.9943 112.238 47.2657L110.677 46.2248C110.157 46.9535 109.532 47.4739 108.491 47.4739C107.555 47.4739 106.826 47.0575 106.306 46.1208L112.238 43.7268C112.343 43.8308 112.134 43.3104 112.134 43.3104ZM106.097 44.7676C106.097 43.1022 107.45 42.1655 108.387 42.1655C109.116 42.1655 109.844 42.5818 110.053 43.1022L106.097 44.7676ZM101.205 49.0352H103.183V36.1284H101.205V49.0352ZM98.0827 41.4369C97.5622 40.9164 96.7295 40.5001 95.6887 40.5001C93.5029 40.5001 91.4211 42.4777 91.4211 44.8717C91.4211 47.3698 93.5029 49.2434 95.6887 49.2434C96.7295 49.2434 97.5622 48.827 97.9786 48.2025H98.0827V48.827C98.0827 50.4924 97.1459 51.4292 95.6887 51.4292C94.5437 51.4292 93.711 50.5965 93.5029 49.8679L91.8375 50.5965C92.3579 51.7414 93.6069 53.1987 95.7928 53.1987C98.0827 53.1987 100.06 51.8455 100.06 48.6188V40.7082H98.1868L98.0827 41.4369ZM95.7928 47.578C94.4396 47.578 93.2947 46.433 93.2947 44.9758C93.2947 43.4145 94.4396 42.2695 95.7928 42.2695C97.1459 42.2695 98.1868 43.4145 98.1868 44.9758C98.1868 46.433 97.1459 47.578 95.7928 47.578ZM121.19 36.1284H116.506V49.0352H118.484V44.1431H121.19C123.376 44.1431 125.457 42.5818 125.457 40.1878C125.562 37.6897 123.376 36.1284 121.19 36.1284ZM121.294 42.3736H118.484V37.8979H121.294C122.751 37.8979 123.584 39.0429 123.584 40.0837C123.584 41.1246 122.751 42.3736 121.294 42.3736ZM133.368 40.5001C131.911 40.5001 130.454 41.1246 129.933 42.4777L131.703 43.2063C132.119 42.4777 132.744 42.2695 133.472 42.2695C134.513 42.2695 135.554 42.8941 135.554 43.9349V44.039C135.242 43.8309 134.409 43.5186 133.472 43.5186C131.599 43.5186 129.725 44.5595 129.725 46.433C129.725 48.2025 131.286 49.2434 132.952 49.2434C134.305 49.2434 135.033 48.6188 135.45 47.9943H135.554V49.0352H137.427V44.039C137.323 41.7491 135.554 40.5001 133.368 40.5001ZM133.056 47.578C132.431 47.578 131.495 47.2657 131.495 46.5371C131.495 45.4962 132.639 45.184 133.576 45.184C134.409 45.184 134.825 45.3922 135.346 45.6003C135.242 46.7453 134.201 47.578 133.056 47.578ZM144.089 40.8123L141.903 46.433H141.799L139.509 40.8123H137.427L140.862 48.6188L138.885 52.9905H140.966L146.275 40.8123H144.089ZM126.602 49.0352H128.58V36.1284H126.602V49.0352Z" fill="#575A65" />
    <path d="M25.8868 26.0859C25.5766 26.3961 25.3699 26.913 25.3699 27.5333V50.1746C25.3699 50.7949 25.5766 51.3119 25.8868 51.622L25.9902 51.7254L38.8099 39.0091V38.6989L25.8868 26.0859Z" fill="url(#paint0_linear)" />
    <path d="M43.0488 43.2467L38.8101 39.0079V38.6978L43.0488 34.459L43.1522 34.5624L48.2181 37.4572C49.6655 38.2842 49.6655 39.6282 48.2181 40.4553L43.0488 43.2467C43.1522 43.2467 43.0488 43.2467 43.0488 43.2467Z" fill="url(#paint1_linear)" />
    <path d="M43.1523 43.2465L38.8101 38.9043L25.887 51.6206C26.4039 52.1376 27.1276 52.1376 28.058 51.724L43.1523 43.2465Z" fill="url(#paint2_linear)" />
    <path d="M43.1523 34.5635L28.058 26.0859C27.1276 25.569 26.4039 25.6724 25.887 26.1893L38.8101 38.9057L43.1523 34.5635Z" fill="url(#paint3_linear)" />
    <defs>
        <linearGradient id="paint0_linear" x1="37.6523" y1="50.4031" x2="20.4644" y2="33.0121" gradientUnits="userSpaceOnUse">
            <stop stop-color="#00A0FF" />
            <stop offset="0.0066" stop-color="#00A1FF" />
            <stop offset="0.2601" stop-color="#00BEFF" />
            <stop offset="0.5122" stop-color="#00D2FF" />
            <stop offset="0.7604" stop-color="#00DFFF" />
            <stop offset="1" stop-color="#00E3FF" />
        </linearGradient>
        <linearGradient id="paint1_linear" x1="50.0952" y1="38.8528" x2="25.0192" y2="38.8528" gradientUnits="userSpaceOnUse">
            <stop stop-color="#FFE000" />
            <stop offset="0.4087" stop-color="#FFBD00" />
            <stop offset="0.7754" stop-color="#FFA500" />
            <stop offset="1" stop-color="#FF9C00" />
        </linearGradient>
        <linearGradient id="paint2_linear" x1="32.1291" y1="45.0456" x2="8.82084" y2="21.4621" gradientUnits="userSpaceOnUse">
            <stop stop-color="#FF3A44" />
            <stop offset="1" stop-color="#C31162" />
        </linearGradient>
        <linearGradient id="paint3_linear" x1="14.0016" y1="50.6801" x2="24.4097" y2="40.149" gradientUnits="userSpaceOnUse">
            <stop stop-color="#32A071" />
            <stop offset="0.0685" stop-color="#2DA771" />
            <stop offset="0.4762" stop-color="#15CF74" />
            <stop offset="0.8009" stop-color="#06E775" />
            <stop offset="1" stop-color="#00F076" />
        </linearGradient>
    </defs>
</svg>
