<svg width="73" height="73" viewBox="0 0 73 73" fill="none" xmlns="http://www.w3.org/2000/svg">
<path d="M69.9763 33.7122H68.5431C68.2856 33.7122 68.0617 33.9474 68.0505 33.9585L62.6203 41.0682C62.5195 41.2026 62.3516 41.1914 62.262 41.057L57.246 33.9585C57.246 33.9474 57.0557 33.7122 56.7086 33.7122H47.0798C46.9118 33.7122 46.7775 33.5779 46.7775 33.4099V31.0587C46.7775 30.7228 46.5088 30.4541 46.1729 30.4541H42.8028H42.3102H41.9855C41.6496 30.4541 41.3809 30.7228 41.3809 31.0587V31.3274V40.1949C41.448 41.3145 42.2542 42.5685 44.471 42.5685H63.0681C63.5048 42.5685 63.7287 42.2886 63.7287 42.2886L70.0994 33.9138C70.133 33.9138 70.2674 33.7122 69.9763 33.7122ZM56.8654 41.3033H48.2778C47.0798 41.3033 46.7999 40.9674 46.7999 40.0382V35.2685C46.7999 35.1118 46.923 34.9774 47.0798 34.9662H52.0733C52.2301 34.9774 52.4204 35.067 52.5212 35.1901L56.9997 41.0682C57.0781 41.2026 57.0333 41.3033 56.8654 41.3033Z" fill="#008B3B"/>
<path d="M32.3918 30.2524L31.776 30.2412H31.4625H30.8467V30.2524C24.7447 30.4315 22.8637 33.2978 22.6174 35.9065H20.5908H20.0086H17.9933H17.8478H16.8401H14.8135C14.6568 35.9177 14.5336 36.0409 14.5336 36.2088V36.9702C14.5336 37.1269 14.6568 37.2613 14.8135 37.2725H16.8401H17.6686C17.8366 37.2837 17.9821 37.4181 17.9821 37.586V39.2542V40.0716C17.8813 40.9225 17.0976 41.2248 15.3062 41.236C10.6933 41.124 8.24131 39.1647 8.24131 36.4888C8.24131 33.7345 10.8277 31.7303 15.6981 31.7303H16.8849H20.2662C20.4229 31.7191 20.5461 31.596 20.5461 31.428V30.7115C20.5461 30.5547 20.4229 30.4204 20.2662 30.4092H16.9744H16.8961H14.5112C5.30787 30.4092 2.99023 33.7233 2.99023 36.4664C2.99023 39.2207 5.30787 42.5236 14.5112 42.5236H17.9709C19.7847 42.5236 21.0835 42.3892 22.1135 41.7958C22.4942 41.5719 23.0316 41.1576 23.11 40.4523V40.4411C23.11 40.3963 23.1212 40.3515 23.1212 40.3067V39.8477C23.1548 39.6237 23.2556 39.6125 23.278 39.6125C23.3675 39.6013 23.4347 39.6237 23.5691 39.7469C24.6663 41.3368 26.8608 42.6019 30.8467 42.7251V42.7363H31.4625H31.776H32.3918V42.7251C38.964 42.5348 40.6435 39.2319 40.6435 36.4664C40.6435 33.7457 38.964 30.4427 32.3918 30.2524ZM31.6752 41.5047C29.6039 41.5271 27.8909 39.299 27.8685 36.5447C27.8349 33.7904 29.5031 31.5288 31.5744 31.5176C33.6458 31.4952 35.3476 33.7233 35.3812 36.4776C35.4036 39.2319 33.7465 41.4823 31.6752 41.5047Z" fill="#E30613"/>
</svg>
