<svg width="20" height="20" viewBox="0 0 20 20" fill="none" xmlns="http://www.w3.org/2000/svg">
<path d="M7.63118 17.3098V14.7542C7.63116 14.1042 8.16109 13.576 8.81767 13.5717H11.2227C11.8824 13.5717 12.4173 14.1011 12.4173 14.7542V14.7542V17.3178C12.4171 17.8697 12.862 18.3207 13.4194 18.3337H15.0227C16.6211 18.3337 17.9168 17.0509 17.9168 15.4685V15.4685V8.19852C17.9083 7.57602 17.6131 6.99145 17.1151 6.61119L11.6316 2.23808C10.6709 1.47663 9.30533 1.47663 8.34468 2.23808L2.88518 6.61912C2.38538 6.99784 2.08965 7.58338 2.0835 8.20646V15.4685C2.0835 17.0509 3.37923 18.3337 4.97759 18.3337H6.58096C7.15212 18.3337 7.61514 17.8753 7.61514 17.3098V17.3098" stroke="#282828" stroke-width="1.5" stroke-linecap="round" stroke-linejoin="round"/>
</svg>
