<svg width="20" height="19" viewBox="0 0 20 19" fill="none" xmlns="http://www.w3.org/2000/svg">
<path d="M13.394 9.73042C13.0838 9.41574 12.5773 9.41208 12.2626 9.72223C11.948 10.0324 11.9443 10.5389 12.2545 10.8536L13.394 9.73042ZM15.1651 12.667L15.7349 13.2286C16.0418 12.9171 16.0418 12.4169 15.7349 12.1054L15.1651 12.667ZM12.2545 14.4804C11.9443 14.7951 11.948 15.3016 12.2626 15.6118C12.5773 15.9219 13.0838 15.9182 13.394 15.6036L12.2545 14.4804ZM12.2545 10.8536L14.5953 13.2286L15.7349 12.1054L13.394 9.73042L12.2545 10.8536ZM14.5953 12.1054L12.2545 14.4804L13.394 15.6036L15.7349 13.2286L14.5953 12.1054Z" fill="#414141"/>
<path d="M4.24121 11.867C3.79938 11.867 3.44121 12.2252 3.44121 12.667C3.44121 13.1088 3.79938 13.467 4.24121 13.467V11.867ZM15.1653 13.467C15.6071 13.467 15.9653 13.1088 15.9653 12.667C15.9653 12.2252 15.6071 11.867 15.1653 11.867V13.467ZM4.24121 13.467H15.1653V11.867H4.24121V13.467Z" fill="#414141"/>
<path d="M6.01232 9.26959C6.32247 9.58426 6.82899 9.58792 7.14366 9.27777C7.45833 8.96762 7.462 8.4611 7.15185 8.14643L6.01232 9.26959ZM4.24121 6.33301L3.67145 5.77143C3.36447 6.08289 3.36447 6.58313 3.67145 6.89459L4.24121 6.33301ZM7.15185 4.51958C7.462 4.20491 7.45833 3.69839 7.14366 3.38824C6.82899 3.07809 6.32247 3.08176 6.01232 3.39643L7.15185 4.51958ZM7.15185 8.14643L4.81098 5.77143L3.67145 6.89459L6.01232 9.26959L7.15185 8.14643ZM4.81098 6.89459L7.15185 4.51958L6.01232 3.39643L3.67145 5.77143L4.81098 6.89459Z" fill="#414141"/>
<path d="M15.1653 7.13301C15.6071 7.13301 15.9653 6.77484 15.9653 6.33301C15.9653 5.89118 15.6071 5.53301 15.1653 5.53301V7.13301ZM4.24121 5.53301C3.79938 5.53301 3.44121 5.89118 3.44121 6.33301C3.44121 6.77484 3.79938 7.13301 4.24121 7.13301L4.24121 5.53301ZM15.1653 5.53301L4.24121 5.53301L4.24121 7.13301L15.1653 7.13301V5.53301Z" fill="#414141"/>
</svg>
