<svg width="45" height="45" viewBox="0 0 45 45" fill="none" xmlns="http://www.w3.org/2000/svg">
<circle cx="22.5" cy="22.5" r="21.5" stroke="#8568C6" stroke-width="2"/>
<path d="M24.8764 15.6269C25.2669 15.2364 25.9001 15.2364 26.2906 15.6269C26.6811 16.0174 26.6811 16.6506 26.2906 17.0411L24.8764 15.6269ZM19.4168 22.5007L18.7097 23.2078C18.3192 22.8172 18.3192 22.1841 18.7097 21.7935L19.4168 22.5007ZM26.2906 27.9602C26.6811 28.3507 26.6811 28.9839 26.2906 29.3744C25.9001 29.7649 25.2669 29.7649 24.8764 29.3744L26.2906 27.9602ZM26.2906 17.0411L20.1239 23.2078L18.7097 21.7935L24.8764 15.6269L26.2906 17.0411ZM20.1239 21.7935L26.2906 27.9602L24.8764 29.3744L18.7097 23.2078L20.1239 21.7935Z" fill="#8568C6"/>
</svg>
