<svg width="105" height="132" viewBox="0 0 105 132" fill="none" xmlns="http://www.w3.org/2000/svg">
<path d="M52.5 129C57.9856 129 102 103.858 102 74.1864V9.47149C89.0164 9.47149 52.5 3 52.5 3C52.5 3 15.9511 9.47149 3 9.47149V74.1864C3 103.858 47.0144 129 52.5 129Z" stroke="#8568C6" stroke-width="5" stroke-linecap="round" stroke-linejoin="round"/>
<path d="M64 47.8455C64 46.4213 63.7155 45.011 63.1627 43.6951C62.6099 42.3793 61.7996 41.1837 60.7782 40.1766C59.7568 39.1695 58.5441 38.3706 57.2096 37.8256C55.875 37.2805 54.4446 37 53.0001 37C51.5555 37 50.1252 37.2805 48.7906 37.8256C47.456 38.3706 46.2434 39.1695 45.2219 40.1766C44.2005 41.1837 43.3903 42.3793 42.8375 43.6951C42.2847 45.011 42.0002 46.4213 42.0002 47.8455C41.9888 49.9706 42.6223 52.0505 43.8192 53.8178C45.0161 55.5852 46.7218 56.9592 48.7169 57.7633V67.777C48.7169 68.897 49.1682 69.9711 49.9714 70.7631C50.7747 71.5551 51.8641 72 53.0001 72C54.136 72 55.2255 71.5551 56.0287 70.7631C56.832 69.9711 57.2832 68.897 57.2832 67.777V57.7633C59.2632 56.938 60.9545 55.5589 62.1483 53.7963C63.342 52.0337 63.9857 49.9649 64 47.8455Z" stroke="#8568C6" stroke-width="5" stroke-linecap="round" stroke-linejoin="round"/>
</svg>
