<svg width="34" height="34" viewBox="0 0 34 34" fill="none" xmlns="http://www.w3.org/2000/svg">
<path d="M0.339844 0.34082H33.6598V33.6598H0.339844V0.34082Z" fill="#FFC325"/>
<path d="M0.84668 17.0004C0.84668 13.5205 8.07882 10.6992 17.0001 10.6992C25.9214 10.6992 33.1535 13.5212 33.1535 17.0008C33.1535 20.4803 25.9217 23.301 17.0001 23.301C8.07848 23.301 0.84668 20.48 0.84668 17.0004Z" fill="#006891"/>
<path d="M0.84668 17.0004C0.84668 13.5205 8.07882 10.6992 17.0001 10.6992C25.9214 10.6992 33.1535 13.5212 33.1535 17.0008C33.1535 20.4803 25.9217 23.301 17.0001 23.301C8.07848 23.301 0.84668 20.48 0.84668 17.0004V17.0004Z" stroke="#006891" stroke-width="1.40509" stroke-miterlimit="3.8636"/>
<path fill-rule="evenodd" clip-rule="evenodd" d="M6.7666 20.0631L8.44314 13.8047H11.0894V17.4855H11.1067L12.9019 13.8047H15.59L13.9134 20.0631H12.1661L13.2409 16.0487H13.2235L11.0894 20.0631H9.69026V16.0487H9.6617L8.58696 20.0631H6.7666Z" fill="white"/>
<path fill-rule="evenodd" clip-rule="evenodd" d="M16.0625 20.1873L16.3005 19.2979H18.229L17.9907 20.1873H16.0625Z" fill="#EE4034"/>
<path fill-rule="evenodd" clip-rule="evenodd" d="M16.3674 19.0475L17.3429 15.4088H15.5898L16.0199 13.8047H21.4542L21.0244 15.4088H19.2714L18.2962 19.0465L16.3674 19.0475Z" fill="#FFC325"/>
<path fill-rule="evenodd" clip-rule="evenodd" d="M20.208 20.0631L21.8835 13.8047H23.7773L24.6318 17.1533H24.6484L25.5454 13.8047H27.296L25.6202 20.0631H23.8185L22.8906 16.645H22.874L21.9587 20.0631H20.208Z" fill="white"/>
</svg>
