<svg width="42" height="42" viewBox="0 0 42 42" fill="none" xmlns="http://www.w3.org/2000/svg">
<rect width="42" height="42" rx="10" fill="#F5F5F5"/>
<path fill-rule="evenodd" clip-rule="evenodd" d="M19.0337 28.4308C19.4869 28.9597 20.0688 29.2503 20.6726 29.2503H20.6734C21.2798 29.2503 21.8643 28.9597 22.3184 28.4299C22.5617 28.1485 22.9764 28.1256 23.2451 28.3795C23.5146 28.6334 23.5364 29.0688 23.2941 29.3502C22.5871 30.1725 21.6569 30.6253 20.6734 30.6253H20.6717C19.6908 30.6244 18.7624 30.1716 18.0581 29.3493C17.8157 29.0679 17.8376 28.6325 18.1071 28.3795C18.3766 28.1247 18.7913 28.1476 19.0337 28.4308ZM20.7161 10.917C24.6055 10.917 27.2183 14.0905 27.2183 17.0541C27.2183 18.5785 27.5884 19.2247 27.9813 19.9104C28.3698 20.5869 28.8099 21.3551 28.8099 22.8071C28.5045 26.5168 24.8076 26.8193 20.7161 26.8193C16.6246 26.8193 12.9269 26.5168 12.625 22.8657C12.6224 21.3551 13.0625 20.5869 13.451 19.9104L13.5882 19.6686C13.9259 19.0605 14.214 18.3991 14.214 17.0541C14.214 14.0905 16.8268 10.917 20.7161 10.917ZM20.7161 12.292C17.658 12.292 15.5265 14.8018 15.5265 17.0541C15.5265 18.9598 15.0216 19.8407 14.5754 20.6181C14.2175 21.2423 13.9349 21.7355 13.9349 22.8071C14.081 24.5359 15.1704 25.4443 20.7161 25.4443C26.2313 25.4443 27.3548 24.4956 27.5 22.7475C27.4974 21.7355 27.2148 21.2423 26.8569 20.6181C26.4106 19.8407 25.9058 18.9598 25.9058 17.0541C25.9058 14.8018 23.7743 12.292 20.7161 12.292Z" fill="#8568C6"/>
<circle cx="38" cy="5" r="3" fill="#E9001C"/>
</svg>
