<svg width="135" height="130" viewBox="0 0 135 130" fill="none" xmlns="http://www.w3.org/2000/svg">
<path d="M48.8417 16.25H86.1583C87.6502 16.25 89.0809 16.8207 90.1358 17.8365L116.477 43.2025C117.532 44.2184 118.125 45.5961 118.125 47.0327V82.9673C118.125 84.4039 117.532 85.7816 116.477 86.7974L90.1358 112.163C89.0809 113.179 87.6502 113.75 86.1583 113.75H48.8416C47.3498 113.75 45.9191 113.179 44.8642 112.163L18.5225 86.7974C17.4676 85.7816 16.875 84.4038 16.875 82.9672V47.0327C16.875 45.5961 17.4676 44.2184 18.5225 43.2026L44.8642 17.8365C45.9191 16.8207 47.3498 16.25 48.8417 16.25Z" stroke="#EF5DA8" stroke-width="4" stroke-miterlimit="10" stroke-linecap="round" stroke-linejoin="round"/>
<path d="M67.2207 83.6875H67.7832V84.2292H67.2207V83.6875Z" stroke="#EF5DA8" stroke-width="4" stroke-linecap="round" stroke-linejoin="round"/>
<path d="M67.5 45.7705V67.4372" stroke="#EF5DA8" stroke-width="4" stroke-linecap="round" stroke-linejoin="round"/>
</svg>
