<svg width="26" height="26" viewBox="0 0 26 26" fill="none" xmlns="http://www.w3.org/2000/svg">
<path d="M18.4163 8.66699V7.58366C18.4163 4.59691 15.9864 2.16699 12.9997 2.16699C10.0129 2.16699 7.58301 4.59691 7.58301 7.58366V10.8337H6.49967C5.30476 10.8337 4.33301 11.8054 4.33301 13.0003V21.667C4.33301 22.8619 5.30476 23.8337 6.49967 23.8337H19.4997C20.6946 23.8337 21.6663 22.8619 21.6663 21.667V13.0003C21.6663 11.8054 20.6946 10.8337 19.4997 10.8337H9.74967V7.58366C9.74967 5.79183 11.2078 4.33366 12.9997 4.33366C14.7915 4.33366 16.2497 5.79183 16.2497 7.58366V8.66699H18.4163ZM19.4997 13.0003L19.5018 21.667H6.49967V13.0003H19.4997Z" fill="#AAAAAA"/>
</svg>
