<svg width="40" height="40" viewBox="0 0 40 40" fill="none" xmlns="http://www.w3.org/2000/svg">
<g filter="url(#filter0_b_228_2365)">
<rect width="40" height="40" rx="6" fill="#8B6DCF"/>
<path d="M11.8783 13.1113C11.8783 12.3381 12.5051 11.7113 13.2783 11.7113V10.5113C11.8424 10.5113 10.6783 11.6754 10.6783 13.1113H11.8783ZM11.8783 25.0002V13.1113H10.6783V25.0002H11.8783ZM13.2783 26.4002C12.5051 26.4002 11.8783 25.7734 11.8783 25.0002H10.6783C10.6783 26.4362 11.8424 27.6002 13.2783 27.6002V26.4002ZM26.7217 26.4002H13.2783V27.6002H26.7217V26.4002ZM28.1217 25.0002C28.1217 25.7734 27.4949 26.4002 26.7217 26.4002V27.6002C28.1576 27.6002 29.3217 26.4362 29.3217 25.0002H28.1217ZM28.1217 13.1113V25.0002H29.3217V13.1113H28.1217ZM26.7217 11.7113C27.4949 11.7113 28.1217 12.3381 28.1217 13.1113H29.3217C29.3217 11.6754 28.1576 10.5113 26.7217 10.5113V11.7113ZM13.2783 11.7113H26.7217V10.5113H13.2783V11.7113ZM19.9298 18.7224C19.9298 18.2254 20.3328 17.8224 20.8298 17.8224V16.6224C19.67 16.6224 18.7298 17.5626 18.7298 18.7224H19.9298ZM19.9298 19.3891V18.7224H18.7298V19.3891H19.9298ZM20.8298 20.2891C20.3328 20.2891 19.9298 19.8861 19.9298 19.3891H18.7298C18.7298 20.5489 19.67 21.4891 20.8298 21.4891V20.2891ZM24.5388 20.2891H20.8298V21.4891H24.5388V20.2891ZM25.4388 19.3891C25.4388 19.8861 25.0359 20.2891 24.5388 20.2891V21.4891C25.6986 21.4891 26.6388 20.5489 26.6388 19.3891H25.4388ZM25.4388 18.7224V19.3891H26.6388V18.7224H25.4388ZM24.5388 17.8224C25.0359 17.8224 25.4388 18.2254 25.4388 18.7224H26.6388C26.6388 17.5626 25.6986 16.6224 24.5388 16.6224V17.8224ZM20.8298 17.8224H24.5388V16.6224H20.8298V17.8224Z" fill="white"/>
</g>
<defs>
<filter id="filter0_b_228_2365" x="-20" y="-20" width="80" height="80" filterUnits="userSpaceOnUse" color-interpolation-filters="sRGB">
<feFlood flood-opacity="0" result="BackgroundImageFix"/>
<feGaussianBlur in="BackgroundImage" stdDeviation="10"/>
<feComposite in2="SourceAlpha" operator="in" result="effect1_backgroundBlur_228_2365"/>
<feBlend mode="normal" in="SourceGraphic" in2="effect1_backgroundBlur_228_2365" result="shape"/>
</filter>
</defs>
</svg>
