<svg width="40" height="40" viewBox="0 0 40 40" fill="none" xmlns="http://www.w3.org/2000/svg">
<g filter="url(#filter0_b_228_2329)">
<rect width="40" height="40" rx="6" fill="#8B6DCF"/>
<path d="M10 15C10 14.4696 10.2107 13.9609 10.5858 13.5858C10.9609 13.2107 11.4696 13 12 13H28C28.5304 13 29.0391 13.2107 29.4142 13.5858C29.7893 13.9609 30 14.4696 30 15V25C30 25.5304 29.7893 26.0391 29.4142 26.4142C29.0391 26.7893 28.5304 27 28 27H12C11.4696 27 10.9609 26.7893 10.5858 26.4142C10.2107 26.0391 10 25.5304 10 25V15Z" stroke="white" stroke-width="1.2" stroke-linecap="round" stroke-linejoin="round"/>
<path d="M20 23C21.6569 23 23 21.6569 23 20C23 18.3431 21.6569 17 20 17C18.3431 17 17 18.3431 17 20C17 21.6569 18.3431 23 20 23Z" stroke="white" stroke-width="1.2" stroke-linecap="round" stroke-linejoin="round"/>
<path d="M26 27C26 25.9391 26.4214 24.9217 27.1716 24.1716C27.9217 23.4214 28.9391 23 30 23M10 17C11.0609 17 12.0783 16.5786 12.8284 15.8284C13.5786 15.0783 14 14.0609 14 13L10 17Z" stroke="white" stroke-width="1.2" stroke-linecap="round" stroke-linejoin="round"/>
</g>
<defs>
<filter id="filter0_b_228_2329" x="-20" y="-20" width="80" height="80" filterUnits="userSpaceOnUse" color-interpolation-filters="sRGB">
<feFlood flood-opacity="0" result="BackgroundImageFix"/>
<feGaussianBlur in="BackgroundImage" stdDeviation="10"/>
<feComposite in2="SourceAlpha" operator="in" result="effect1_backgroundBlur_228_2329"/>
<feBlend mode="normal" in="SourceGraphic" in2="effect1_backgroundBlur_228_2329" result="shape"/>
</filter>
</defs>
</svg>
