<svg width="41" height="36" viewBox="0 0 41 36" fill="none" xmlns="http://www.w3.org/2000/svg">
<path d="M33.3037 18.396C37.9016 18.396 41 21.9698 41 27.2651C41 32.0302 37.4389 36 32.6155 36C27.3324 36 23.4286 31.2349 23.4286 23.9564C23.4286 7.41273 34.2233 0.795273 41 0V7.27855C36.4051 8.20473 31.2391 13.3658 31.0077 19.0604C31.2391 18.9295 32.1557 18.396 33.3037 18.396ZM9.87807 18.396C14.4701 18.396 17.5714 21.9698 17.5714 27.2651C17.5714 32.0302 14.0103 36 9.18693 36C3.90379 36 0 31.2349 0 23.9564C0 7.41273 10.7947 0.795273 17.5714 0V7.27855C12.9765 8.20473 7.8105 13.3658 7.57914 19.0604C7.8105 18.9295 8.72714 18.396 9.87807 18.396Z" fill="#8568C6"/>
</svg>
