<svg width="193" height="66" viewBox="0 0 193 66" fill="none" xmlns="http://www.w3.org/2000/svg">
<g filter="url(#filter0_d_228_1698)">
<path d="M178.346 7C178.346 7 169.691 26 162.117 26C154.544 26 151.299 15 141.562 15C131.825 15 119.924 43 110.187 43C100.45 43 88.5496 26 82.0583 26C75.5671 26 67.9939 39 56.0932 39C45.4993 39 45.4993 32.3802 42.0288 34.1623C38.5582 35.9445 35.3228 35.9696 30.0207 30.566C24.7187 25.1623 20.766 35.9124 14.9818 30.566" stroke="url(#paint0_linear_228_1698)" stroke-width="3" stroke-linecap="round" stroke-linejoin="round"/>
</g>
<defs>
<filter id="filter0_d_228_1698" x="0.481934" y="0.5" width="192.364" height="65" filterUnits="userSpaceOnUse" color-interpolation-filters="sRGB">
<feFlood flood-opacity="0" result="BackgroundImageFix"/>
<feColorMatrix in="SourceAlpha" type="matrix" values="0 0 0 0 0 0 0 0 0 0 0 0 0 0 0 0 0 0 127 0" result="hardAlpha"/>
<feOffset dy="8"/>
<feGaussianBlur stdDeviation="6.5"/>
<feColorMatrix type="matrix" values="0 0 0 0 0.0456816 0 0 0 0 0.0410428 0 0 0 0 0.12686 0 0 0 0.14 0"/>
<feBlend mode="normal" in2="BackgroundImageFix" result="effect1_dropShadow_228_1698"/>
<feBlend mode="normal" in="SourceGraphic" in2="effect1_dropShadow_228_1698" result="shape"/>
</filter>
<linearGradient id="paint0_linear_228_1698" x1="77.4484" y1="-2.53116" x2="97.298" y2="66.3542" gradientUnits="userSpaceOnUse">
<stop stop-color="#FF30AC" stop-opacity="0.01"/>
<stop offset="1" stop-color="#FF8BAC"/>
</linearGradient>
</defs>
</svg>
