<svg width="60" height="10" viewBox="0 0 60 10" fill="none" xmlns="http://www.w3.org/2000/svg">
<path d="M25.908 3.28725H30.3417C33.0177 3.28725 32.4802 4.64201 32.4802 4.64201C32.3235 6.03035 30.185 6.13112 30.185 6.13112C29.4012 6.15351 29.8491 6.53418 29.8491 6.53418C30.2186 6.99323 30.6552 8.3144 30.6552 8.3144C30.7224 8.52713 30.9015 8.69507 31.1255 8.75105C31.7189 8.81823 31.5845 9.01977 31.5845 9.01977C31.5397 9.05335 31.4614 9.2325 31.2039 9.2325H29.0542C28.5055 9.2325 28.5391 8.62789 28.5391 8.62789C28.2144 7.37391 28.0353 7.0828 28.0353 7.0828C27.9681 6.84768 27.5203 6.73572 27.5203 6.73572H27.0164L26.2663 8.37038C26.1431 8.71747 26.647 8.76225 26.647 8.76225C27.2404 8.77345 27.1732 9.00857 27.1732 9.00857C27.106 9.29968 26.6581 9.25489 26.6581 9.25489C26.4118 9.26609 23.3888 9.25489 23.3888 9.25489C22.8514 9.26609 22.9298 9.07575 22.9298 9.07575C23.0082 8.71746 23.5232 8.76225 23.5232 8.76225C24.0942 8.75106 24.2174 8.44876 24.2174 8.44876L26.1767 4.18296C26.3447 3.84707 25.9752 3.77989 25.9752 3.77989C25.4489 3.77989 25.4713 3.58955 25.4713 3.58955C25.5609 3.33203 25.908 3.28725 25.908 3.28725ZM32.7377 6.60136C33.264 4.03741 35.5816 3.09691 38 3.07452C40.4184 3.05213 41.8403 4.27253 41.4821 6.13112C40.8103 8.05688 38.9405 9.24369 36.0407 9.24369C34.0029 9.24369 32.5026 8.28081 32.7377 6.60136Z" fill="black"/>
<path d="M1.59989 6.79212C0.189154 8.44918 1.39836 8.71789 1.39836 8.71789C3.23455 9.3113 6.739 9.19933 6.739 9.19933C16.3454 9.06497 15.5393 6.557 15.5393 6.557C15.5841 5.28062 12.7738 4.49688 12.7738 4.49688C9.76201 3.39964 9.12382 2.79504 9.12382 2.79504C7.53394 1.80976 9.7956 1.21636 9.7956 1.21636C13.3 0.510989 15.1362 1.27234 15.1362 1.27234C15.8752 1.61942 15.8864 2.47034 15.8864 2.47034C15.9536 3.11973 16.7261 3.06375 16.7261 3.06375C17.4987 3.09734 17.577 2.72786 17.577 2.72786C18.0473 1.95531 18.204 1.63062 18.204 1.63062C18.5959 0.95884 17.577 0.914055 17.577 0.914055C10.1875 -0.171987 6.34713 1.44028 6.34713 1.44028C2.7755 2.95179 6.89575 4.49688 6.89575 4.49688C8.2505 5.23583 10.6241 6.14274 10.6241 6.14274C13.2329 7.53108 9.7956 8.46037 9.7956 8.46037C6.54866 9.08737 5.11553 8.76268 5.11553 8.76268C3.27934 8.50516 3.24575 7.41912 3.24575 7.41912C3.22336 6.43384 2.92106 6.44504 2.92106 6.44504C2.68593 6.43384 2.46201 6.44504 2.22688 6.45623C1.96937 6.42264 1.72305 6.5682 1.59989 6.79212ZM20.0962 3.94826L18.0921 8.04611C17.7226 8.9866 17.2188 8.87464 17.2188 8.87464C16.5022 8.88583 16.5582 9.13215 16.5582 9.13215C16.5582 9.34488 16.8717 9.2889 16.8717 9.2889H20.6672C21.227 9.27771 20.9583 8.9754 20.9583 8.9754C20.8016 8.84105 20.3537 8.86344 20.3537 8.86344C19.9059 8.82985 19.973 8.59473 19.973 8.59473L22.2011 3.95946H23.735C23.9477 3.95946 23.8694 4.36252 23.8582 4.38491C23.7014 4.732 23.9701 4.86636 23.9701 4.86636C24.2948 4.86636 24.362 4.66482 24.362 4.66482L25.0786 3.39964C25.3697 2.92939 24.8994 2.99657 24.8994 2.99657C24.7091 3.03016 24.53 3.11973 24.3956 3.25409C24.1045 3.43323 23.7014 3.38844 23.7014 3.38844H18.8758C18.9206 2.81743 18.4056 2.95179 18.4056 2.95179C18.204 3.01896 18.0697 3.27648 18.0697 3.27648L17.3755 4.45209C17.1516 4.84396 17.6218 4.84396 17.6218 4.84396C17.801 4.85516 17.9241 4.65363 17.9241 4.65363C18.0809 4.39611 18.5511 4.1162 18.5511 4.1162C18.7974 3.97065 19.0773 3.90347 19.3573 3.93706L20.0962 3.94826ZM40.8878 9.10976H43.4069C43.754 9.10976 43.6757 8.81866 43.6757 8.81866C43.6645 8.63951 43.3845 8.66191 43.3845 8.66191H43.0934C42.9031 8.67311 42.7464 8.53875 42.7016 8.35961L44.5042 4.64243C44.6833 4.21697 44.7953 4.59764 44.7953 4.59764L47.001 8.71789C47.2249 9.18814 47.4264 9.25531 47.5608 9.25531C47.9638 9.25531 48.3669 8.31482 48.3669 8.31482L50.1807 4.10501C50.4606 3.53399 50.7853 3.54519 50.7853 3.54519H51.3339C51.6474 3.55639 51.737 3.34366 51.737 3.34366C51.7258 3.08614 51.3563 3.16452 51.3563 3.16452H49.0947C48.6804 3.15332 48.7476 3.41084 48.7476 3.41084C48.7588 3.56758 49.0499 3.55639 49.0499 3.55639H49.4977C49.8784 3.56758 49.6545 3.89228 49.6545 3.89228L48.1878 6.8593C48.1094 7.08323 48.0534 6.80332 48.0534 6.80332L46.3404 3.46682C46.1388 3.03016 45.8477 3.16452 45.8477 3.16452H43.7428C43.4069 3.16452 43.4293 3.39964 43.4293 3.39964C43.4405 3.534 43.698 3.55639 43.698 3.55639C44.4034 3.55639 44.1683 4.03783 44.1683 4.03783L42.0858 8.10209C41.7835 8.66191 41.414 8.59473 41.414 8.59473C41.1341 8.65071 40.9326 8.6843 40.9326 8.6843C40.8206 8.6955 40.7198 8.77387 40.7086 8.89703C40.7198 9.10976 40.8878 9.10976 40.8878 9.10976ZM57.8614 3.31007C58.2085 3.31007 58.2869 3.54519 58.2869 3.54519L58.1973 3.98185C58.0741 4.4409 58.5108 4.64243 58.5108 4.64243C58.9362 4.67602 59.0818 4.18338 59.0818 4.18338L59.4849 3.37725C59.6528 2.9182 58.9586 2.95179 58.9586 2.95179C53.9315 2.58231 51.6026 4.77679 51.6026 4.77679C50.3375 5.57172 50.3487 6.8593 50.3487 6.8593C50.5838 9.17694 53.5844 9.19933 53.5844 9.19933C55.7453 9.31129 56.8537 8.84105 56.8537 8.84105C57.2904 8.70669 57.3016 8.46037 57.3016 8.46037L57.839 7.13921C58.0181 6.69136 58.6899 6.66896 58.6899 6.66896C59.149 6.61298 59.1826 6.44504 59.1826 6.44504C59.1938 6.27709 58.8467 6.2659 58.8467 6.2659H55.6221C55.0511 6.2659 55.1631 6.41145 55.1631 6.41145C55.1071 6.64657 55.5214 6.60179 55.5214 6.60179H55.9356C56.2155 6.62418 56.126 7.07203 56.126 7.07203L55.5438 8.3932C55.387 8.81866 54.4241 8.75148 54.4241 8.75148C51.9833 8.52755 52.1065 6.98246 52.1065 6.98246C52.3752 4.75439 55.2303 3.73553 55.2303 3.73553C56.9769 3.23169 57.8614 3.31007 57.8614 3.31007Z" fill="black" stroke="black" stroke-width="0.2311" stroke-miterlimit="3.86"/>
<path d="M28.4048 3.9478H29.5244C30.6664 3.9478 30.1738 5.06743 30.1738 5.06743C29.4684 6.6797 27.2852 6.31022 27.2852 6.31022L28.4048 3.9478ZM35.1114 6.10869C35.8279 4.30608 36.8468 3.39918 38.2687 3.44396C39.3436 3.47755 39.7355 4.70915 39.0973 6.27663C38.4927 7.98967 37.1043 8.96375 36.0295 8.90777C34.9434 8.85179 34.4956 7.62019 35.1114 6.10869Z" fill="white"/>
<path d="M28.4048 3.94783H29.5244C30.6664 3.94783 30.1738 5.06747 30.1738 5.06747C29.4684 6.67974 27.2851 6.31026 27.2851 6.31026L28.4048 3.94783ZM25.908 3.28725H30.3417C33.0177 3.28725 32.4802 4.64201 32.4802 4.64201C32.3235 6.03035 30.185 6.13112 30.185 6.13112C29.4012 6.15351 29.8491 6.53418 29.8491 6.53418C30.2186 6.99323 30.6552 8.3144 30.6552 8.3144C30.7224 8.52713 30.9015 8.69507 31.1255 8.75105C31.7189 8.81823 31.5845 9.01977 31.5845 9.01977C31.5397 9.05335 31.4614 9.2325 31.2039 9.2325H29.0542C28.5055 9.2325 28.5391 8.62789 28.5391 8.62789C28.2144 7.37391 28.0353 7.0828 28.0353 7.0828C27.9681 6.84768 27.5203 6.73572 27.5203 6.73572H27.0164L26.2663 8.37038C26.1431 8.71747 26.647 8.76225 26.647 8.76225C27.2404 8.77345 27.1732 9.00857 27.1732 9.00857C27.106 9.29968 26.6581 9.25489 26.6581 9.25489C26.4118 9.26609 23.3888 9.25489 23.3888 9.25489C22.8514 9.26609 22.9298 9.07575 22.9298 9.07575C23.0082 8.71746 23.5232 8.76225 23.5232 8.76225C24.0942 8.75106 24.2174 8.44876 24.2174 8.44876L26.1767 4.18296C26.3447 3.84707 25.9752 3.77989 25.9752 3.77989C25.4489 3.77989 25.4713 3.58955 25.4713 3.58955C25.5609 3.33203 25.908 3.28725 25.908 3.28725ZM35.1114 6.10872C35.8279 4.30611 36.8468 3.39921 38.2687 3.444C39.3436 3.47759 39.7354 4.70918 39.0973 6.27667C38.4927 7.9897 37.1043 8.96378 36.0295 8.9078C34.9434 8.85182 34.4956 7.62023 35.1114 6.10872ZM32.7377 6.60136C33.264 4.03741 35.5816 3.09691 38 3.07452C40.4184 3.05213 41.8403 4.27253 41.4821 6.13112C40.8103 8.05688 38.9405 9.24369 36.0407 9.24369C34.0029 9.24369 32.5026 8.28081 32.7377 6.60136Z" stroke="black" stroke-width="0.2311" stroke-miterlimit="3.86"/>
</svg>
