<svg width="104" height="104" viewBox="0 0 104 104" fill="none" xmlns="http://www.w3.org/2000/svg">
<path d="M49.27 33.3933L31.6469 11.277C31.4031 10.9683 31.4437 10.5214 31.7362 10.2614C32.045 9.99328 32.5081 10.0177 32.7762 10.3264L51.5206 31.4433C51.7887 31.752 51.7644 32.2152 51.4556 32.4833L50.3344 33.4745C50.0175 33.7589 49.53 33.7183 49.27 33.3933ZM53.7956 33.2714L52.7881 32.3777C52.455 32.077 52.4225 31.5652 52.7231 31.232L71.3619 10.2208C71.6625 9.88765 72.1744 9.85515 72.5075 10.1558C72.8325 10.4402 72.8731 10.9358 72.605 11.277L54.9738 33.182C54.6731 33.5314 54.1369 33.5802 53.7956 33.2714Z" fill="#455A64"/>
<path d="M38.7887 34.4986C38.7887 31.663 45.0775 29.3555 52.8369 29.3555C60.5962 29.3555 66.885 31.6548 66.885 34.4986H38.7887Z" fill="#455A64"/>
<path d="M97.1506 100.75H6.84938C4.85875 100.75 3.25 99.0759 3.25 97.0203V36.6434C3.25 34.5797 4.85875 32.9141 6.84938 32.9141H97.1588C99.1413 32.9141 100.758 34.5878 100.758 36.6434V97.0203C100.75 99.0759 99.1413 100.75 97.1506 100.75Z" fill="#82AEC0"/>
<path d="M94.5344 97.2078H9.72563C8.96064 97.2078 8.22699 96.9039 7.68606 96.363C7.14514 95.8221 6.84125 95.0884 6.84125 94.3234V39.0328C6.84125 38.2678 7.14514 37.5342 7.68606 36.9932C8.22699 36.4523 8.96064 36.1484 9.72563 36.1484H94.5344C95.2994 36.1484 96.033 36.4523 96.5739 36.9932C97.1149 37.5342 97.4188 38.2678 97.4188 39.0328V94.3234C97.4188 95.0884 97.1149 95.8221 96.5739 96.363C96.033 96.9039 95.2994 97.2078 94.5344 97.2078Z" fill="#212121"/>
<path d="M12.5044 88.5303L8.60438 94.6647C7.92188 95.7372 8.65313 97.1915 9.92062 97.1996H77.2362C78.6744 97.1915 79.6087 95.6803 78.9831 94.3884L76.5456 89.3671L12.5044 88.5303Z" fill="#B9E4EA"/>
<path d="M77.5531 85.6947C76.9275 88.5141 74.8394 90.6916 72.1581 91.2847C67.7544 92.2678 59.5481 93.4947 46.0281 93.4947C31.8338 93.4947 22.3112 92.1459 17.1844 91.1466C14.3487 90.5941 12.1225 88.2703 11.57 85.2722C10.2944 78.3822 8.69375 64.6103 11.635 47.4097C12.1794 44.2247 14.6087 41.7791 17.6394 41.3647C23.1075 40.6091 32.8738 39.6016 46.0281 39.6016C58.5081 39.6016 66.8687 40.5116 71.6056 41.2428C74.5225 41.6978 76.8544 44.0622 77.4475 47.1253C80.9656 65.2441 79.0237 79.0484 77.5531 85.6947Z" fill="#2F7889" stroke="#212121" stroke-width="4" stroke-miterlimit="10"/>
<path d="M93.3481 94.6316H84.0938C83.8708 94.6316 83.6499 94.5877 83.4439 94.5023C83.2379 94.417 83.0507 94.2919 82.893 94.1342C82.7353 93.9765 82.6102 93.7893 82.5249 93.5833C82.4396 93.3773 82.3956 93.1565 82.3956 92.9335V73.6366C82.3956 72.6941 83.1594 71.9385 84.0938 71.9385H93.3481C94.2906 71.9385 95.0462 72.7022 95.0462 73.6366V92.9335C95.0462 93.8678 94.2906 94.6316 93.3481 94.6316Z" fill="#455A64"/>
<path d="M88.725 52.9746C91.8168 52.9746 94.3231 50.4682 94.3231 47.3764C94.3231 44.2847 91.8168 41.7783 88.725 41.7783C85.6332 41.7783 83.1269 44.2847 83.1269 47.3764C83.1269 50.4682 85.6332 52.9746 88.725 52.9746Z" fill="#455A64"/>
<path d="M88.725 42.2334C88.2944 42.2334 87.9206 42.5259 87.8231 42.9403L87.0919 45.9465C86.8644 46.8835 86.8644 47.8614 87.0919 48.7984L87.8231 51.8046C87.8733 52.0059 87.9893 52.1845 88.1528 52.3122C88.3162 52.4399 88.5176 52.5092 88.725 52.5092C88.9324 52.5092 89.1338 52.4399 89.2972 52.3122C89.4607 52.1845 89.5767 52.0059 89.6269 51.8046L90.3581 48.7984C90.5856 47.864 90.5856 46.889 90.3581 45.9465L89.6269 42.9403C89.5212 42.5259 89.1475 42.2334 88.725 42.2334Z" fill="#82AEC0"/>
<path d="M88.725 67.4453C91.8168 67.4453 94.3231 64.9389 94.3231 61.8471C94.3231 58.7554 91.8168 56.249 88.725 56.249C85.6332 56.249 83.1269 58.7554 83.1269 61.8471C83.1269 64.9389 85.6332 67.4453 88.725 67.4453Z" fill="#455A64"/>
<path d="M84.7681 58.5653C84.4919 58.8985 84.4838 59.3697 84.7356 59.7109L86.58 62.1891C87.1553 62.9624 87.9075 63.5865 88.7738 64.0091L91.5525 65.3578C91.9344 65.5447 92.3975 65.4472 92.6737 65.1141C92.95 64.7809 92.9581 64.3097 92.7062 63.9684L90.8619 61.4903C90.2866 60.717 89.5343 60.0929 88.6681 59.6703L85.8894 58.3216C85.5075 58.1347 85.0444 58.2403 84.7681 58.5653Z" fill="#82AEC0"/>
<path d="M25.2525 45.3216C26.6175 45.1591 29.2013 45.2729 30.1113 48.0435C31.0213 50.8141 29.0225 51.5616 27.95 52.3823C24.8706 54.7304 23.3431 55.6241 21.4906 58.1835C20.0119 60.231 17.4281 59.5891 16.6563 58.2404C16.0388 57.1516 15.5838 53.6579 16.8919 51.3504C19.7113 46.4104 23.8875 45.4841 25.2525 45.3216Z" fill="url(#paint0_linear_743_4068)"/>
<defs>
<linearGradient id="paint0_linear_743_4068" x1="23.8509" y1="28.5565" x2="23.0019" y2="59.3576" gradientUnits="userSpaceOnUse">
<stop stop-color="white"/>
<stop offset="1" stop-color="white" stop-opacity="0"/>
</linearGradient>
</defs>
</svg>
