<svg width="16" height="17" viewBox="0 0 16 17" fill="none" xmlns="http://www.w3.org/2000/svg">
<path fill-rule="evenodd" clip-rule="evenodd" d="M7.09216 10.2305L9.98729 14.9275C10.114 15.1333 10.3119 15.131 10.3918 15.1199C10.4718 15.1088 10.6642 15.0597 10.7338 14.8262L14.3541 2.59888C14.4175 2.38275 14.3011 2.2355 14.2488 2.18325C14.1982 2.131 14.0533 2.01938 13.8435 2.07875L1.6075 5.66183C1.37554 5.72992 1.32487 5.92467 1.31379 6.00463C1.30271 6.08617 1.29954 6.28804 1.50458 6.41708L6.25537 9.38821L10.4528 5.14646C10.6832 4.91371 11.0592 4.91133 11.2927 5.14171C11.5263 5.37208 11.5279 5.74892 11.2975 5.98167L7.09216 10.2305ZM10.3301 16.3121C9.77908 16.3121 9.274 16.0319 8.97633 15.5505L5.90704 10.5702L0.875205 7.42329C0.332913 7.08367 0.0494968 6.47883 0.137372 5.84313C0.224455 5.20742 0.660663 4.70233 1.27341 4.52263L13.5094 0.939543C14.0723 0.774876 14.6755 0.930834 15.0904 1.34408C15.5052 1.76129 15.6596 2.37088 15.4917 2.93613L11.8715 15.1626C11.6902 15.7778 11.1835 16.2124 10.5494 16.2971C10.475 16.3066 10.4029 16.3121 10.3301 16.3121Z" fill="white"/>
</svg>
