<svg width="20" height="20" viewBox="0 0 20 20" fill="none" xmlns="http://www.w3.org/2000/svg">
<path d="M14.6621 9.10983C15.9974 9.10983 17.0806 8.0274 17.0806 6.69212C17.0806 5.35684 15.9974 4.27441 14.6621 4.27441" stroke="#282828" stroke-width="1.5" stroke-linecap="round" stroke-linejoin="round"/>
<path d="M15.7734 11.7373C16.1722 11.7648 16.5686 11.8213 16.959 11.9092C17.5014 12.0154 18.1537 12.2377 18.3859 12.7242C18.5341 13.0359 18.5341 13.3988 18.3859 13.7112C18.1545 14.1978 17.5014 14.4193 16.959 14.5308" stroke="#282828" stroke-width="1.5" stroke-linecap="round" stroke-linejoin="round"/>
<path d="M5.24074 9.10983C3.90546 9.10983 2.82227 8.0274 2.82227 6.69212C2.82227 5.35684 3.90546 4.27441 5.24074 4.27441" stroke="#282828" stroke-width="1.5" stroke-linecap="round" stroke-linejoin="round"/>
<path d="M4.1297 11.7373C3.73095 11.7648 3.3345 11.8213 2.94415 11.9092C2.40179 12.0154 1.74943 12.2377 1.51797 12.7242C1.36901 13.0359 1.36901 13.3988 1.51797 13.7112C1.74866 14.1978 2.40179 14.4193 2.94415 14.5308" stroke="#282828" stroke-width="1.5" stroke-linecap="round" stroke-linejoin="round"/>
<path fill-rule="evenodd" clip-rule="evenodd" d="M9.94886 12.2578C12.6546 12.2578 14.9661 12.6673 14.9661 14.3058C14.9661 15.9436 12.6698 16.3683 9.94886 16.3683C7.2424 16.3683 4.93164 15.9589 4.93164 14.3203C4.93164 12.6818 7.22789 12.2578 9.94886 12.2578Z" stroke="#282828" stroke-width="1.5" stroke-linecap="round" stroke-linejoin="round"/>
<path fill-rule="evenodd" clip-rule="evenodd" d="M9.94763 9.92044C8.16319 9.92044 6.73242 8.48967 6.73242 6.70447C6.73242 4.92002 8.16319 3.48926 9.94763 3.48926C11.7321 3.48926 13.1628 4.92002 13.1628 6.70447C13.1628 8.48967 11.7321 9.92044 9.94763 9.92044Z" stroke="#282828" stroke-width="1.5" stroke-linecap="round" stroke-linejoin="round"/>
</svg>
