<svg width="94" height="94" viewBox="0 0 94 94" fill="none" xmlns="http://www.w3.org/2000/svg">
<path d="M51.1712 39.6853C51.1712 39.6853 72.4461 5.60293 72.9308 4.75105C73.4155 3.89918 73.5183 2.33496 72.1817 2.33496C70.8452 2.33496 37.7028 36.1676 37.7028 36.1676L14.1661 50.1207C14.1661 50.1207 12.5872 51.0901 12.8295 52.3018C13.0719 53.5135 14.1294 53.565 14.6141 53.565C15.0988 53.565 40.207 53.4328 41.6684 53.3887C43.4823 53.3373 43.0344 55.915 43.0344 55.915L27.1425 80.8984C27.1425 80.8984 20.2027 90.504 20.2027 91.1576C20.2027 92.1196 21.363 92.597 22.4425 91.9507C23.2797 91.4514 77.4031 45.5896 79.7898 42.4392C80.4361 41.58 80.7666 39.3181 78.1008 39.3181C75.435 39.3181 54.2042 45.5015 54.2042 45.5015L51.1712 39.6853Z" fill="#FEB804"/>
<path d="M47.448 36.9754C46.7944 37.8714 46.6181 39.3695 48.0281 39.4576C49.4308 39.5384 78.1008 39.3254 78.1008 39.3254C78.1008 39.3254 57.6191 58.1475 51.4209 63.7654C45.2228 69.3834 24.697 87.5812 23.3164 88.8664C21.9652 90.1295 20.7388 91.2898 20.2394 91.1282C20.1586 91.1062 20.0558 90.6729 21.9872 87.4931C23.7497 84.5923 40.6697 56.2381 41.3306 55.1659C41.9916 54.0937 42.5717 53.1831 42.9022 52.6837C43.2327 52.1843 44.3048 49.4598 42.0723 49.4598C39.8398 49.4598 14.1661 50.1207 14.1661 50.1207C14.1661 50.1207 31.9012 35.0734 37.0272 31.027C42.1531 26.9806 71.205 2.33496 72.1817 2.33496C73.1584 2.33496 48.1089 36.0721 47.448 36.9754Z" fill="#FFC927"/>
<path d="M46.5961 51.9573C47.918 50.0553 49.2178 49.9158 50.0036 50.3858C51.017 50.9953 51.1198 52.398 49.842 54.0944C47.8298 56.7822 33.0395 76.5736 32.4741 77.2713C31.4019 78.5931 29.823 78.013 30.8511 76.0963C31.7103 74.51 45.2302 53.9255 46.5961 51.9573ZM25.5783 48.0945C23.0447 49.7909 20.6873 47.2573 22.3837 45.3994C24.0802 43.5414 35.2133 34.2736 37.4678 32.3569C39.7223 30.4402 52.8823 18.9913 53.9031 18.1688C55.2544 17.0819 56.0916 18.1834 55.2397 19.3144C54.3952 20.4453 45.0906 29.7425 40.9855 33.5172C37.813 36.44 27.987 46.4789 25.5783 48.0945Z" fill="#FFE567"/>
</svg>
