<svg width="20" height="18" viewBox="0 0 20 18" fill="none" xmlns="http://www.w3.org/2000/svg">
<path d="M1.6 3C1.6 2.2268 2.2268 1.6 3 1.6V0.4C1.56406 0.4 0.4 1.56406 0.4 3H1.6ZM1.6 14.8889V3H0.4V14.8889H1.6ZM3 16.2889C2.2268 16.2889 1.6 15.6621 1.6 14.8889H0.4C0.4 16.3248 1.56406 17.4889 3 17.4889V16.2889ZM16.4434 16.2889H3V17.4889H16.4434V16.2889ZM17.8434 14.8889C17.8434 15.6621 17.2166 16.2889 16.4434 16.2889V17.4889C17.8793 17.4889 19.0434 16.3248 19.0434 14.8889H17.8434ZM17.8434 3V14.8889H19.0434V3H17.8434ZM16.4434 1.6C17.2166 1.6 17.8434 2.2268 17.8434 3H19.0434C19.0434 1.56406 17.8793 0.4 16.4434 0.4V1.6ZM3 1.6H16.4434V0.4H3V1.6ZM9.6515 8.61108C9.6515 8.11403 10.0544 7.71108 10.5515 7.71108V6.51108C9.3917 6.51108 8.4515 7.45129 8.4515 8.61108H9.6515ZM9.6515 9.27775V8.61108H8.4515V9.27775H9.6515ZM10.5515 10.1778C10.0544 10.1778 9.6515 9.77481 9.6515 9.27775H8.4515C8.4515 10.4375 9.3917 11.3778 10.5515 11.3778V10.1778ZM14.2605 10.1778H10.5515V11.3778H14.2605V10.1778ZM15.1605 9.27775C15.1605 9.77481 14.7575 10.1778 14.2605 10.1778V11.3778C15.4203 11.3778 16.3605 10.4375 16.3605 9.27775H15.1605ZM15.1605 8.61108V9.27775H16.3605V8.61108H15.1605ZM14.2605 7.71108C14.7575 7.71108 15.1605 8.11403 15.1605 8.61108H16.3605C16.3605 7.45129 15.4203 6.51108 14.2605 6.51108V7.71108ZM10.5515 7.71108H14.2605V6.51108H10.5515V7.71108Z" fill="#9A97AA"/>
</svg>
